<svg xmlns="http://www.w3.org/2000/svg" width="16.768" height="19" viewBox="0 0 16.768 19">
  <path id="paperclip-solid" d="M17.926,12.309a2.384,2.384,0,0,0-3.37,0L7.54,19.324a4.109,4.109,0,1,0,5.811,5.811l5.8-5.8a1.068,1.068,0,1,1,1.51,1.51l-5.8,5.8a6.244,6.244,0,0,1-8.83-8.83L13.046,10.8a4.519,4.519,0,0,1,6.39,6.39l-6.71,6.71a2.793,2.793,0,0,1-3.95-3.95l5.49-5.49a1.068,1.068,0,1,1,1.51,1.51l-5.49,5.49a.658.658,0,1,0,.93.93l6.71-6.71a2.384,2.384,0,0,0,0-3.37Z" transform="translate(-4.2 -9.475)" fill="#4c4f51"/>
</svg>
