<svg id="Layer_1" enable-background="new 0 0 512 512" height="512" viewBox="0 0 512 512" width="512" xmlns="http://www.w3.org/2000/svg"><path fill="#f1a31b" d="m281.989 290.383c.713 5.871-.879 11.251-4.605 15.559-3.45 3.988-8.715 6.872-14.768 8.223v1.466c0 4.418-3.582 8-8 8s-8-3.582-8-8v-1.606c-9.644-2.458-16.975-9.286-19.301-18.616-1.069-4.287 1.54-8.629 5.827-9.698 4.29-1.069 8.629 1.54 9.698 5.827 1.423 5.706 7.544 7.584 12.381 7.481 4.207-.101 8.344-1.558 10.062-3.543.55-.636 1.03-1.459.824-3.164-.203-1.666-.676-5.567-12.73-7.547-20.356-3.342-23.936-14.976-24.258-21.613-.519-10.686 6.452-19.687 17.498-22.848v-1.755c0-4.418 3.582-8 8-8s8 3.582 8 8v1.682c7.11 1.96 13.736 6.755 17.307 15.259 1.71 4.074-.205 8.763-4.279 10.473-4.074 1.712-8.763-.205-10.473-4.279-2.794-6.653-9.739-7.021-13.402-6.19-1.625.369-6.909 1.954-6.669 6.881.058 1.201.235 4.854 10.868 6.601 15.857 2.604 24.612 9.806 26.02 21.407zm-27.373 55.612c-37.995 0-68.905-30.911-68.905-68.905s30.911-68.905 68.905-68.905 68.905 30.911 68.905 68.905-30.911 68.905-68.905 68.905zm52.905-68.905c0-29.172-23.733-52.905-52.905-52.905s-52.905 23.733-52.905 52.905 23.733 52.905 52.905 52.905 52.905-23.733 52.905-52.905zm-60.734 93.168c-.646 3.918-4.038 6.7-7.884 6.7-.433 0-.87-.035-1.311-.107-6.657-1.098-13.251-2.883-19.6-5.307-13.062-4.988-24.707-12.516-34.435-22.036l-13.851 12.18c.964 2.06 1.042 4.474.083 6.633l-4.206 9.469c2.553 4.708 4.603 9.654 6.127 14.78l9.662 3.719c3.089 1.188 5.126 4.156 5.126 7.466v21.992c0 3.309-2.038 6.277-5.126 7.466l-9.666 3.721c-1.524 5.123-3.575 10.068-6.126 14.774l4.207 9.473c1.344 3.024.686 6.563-1.654 8.904l-15.55 15.551c-2.339 2.34-5.88 2.997-8.904 1.655l-9.469-4.206c-4.708 2.553-9.654 4.603-14.78 6.127l-3.719 9.663c-1.188 3.089-4.156 5.126-7.466 5.126h-21.991c-3.31 0-6.277-2.038-7.466-5.126l-3.721-9.666c-5.123-1.524-10.068-3.575-14.774-6.126l-9.473 4.208c-3.024 1.343-6.564.685-8.904-1.655l-15.551-15.55c-2.34-2.34-2.998-5.879-1.655-8.904l4.206-9.469c-2.552-4.708-4.603-9.654-6.127-14.78l-9.663-3.719c-3.088-1.191-5.126-4.159-5.126-7.468v-21.992c0-3.31 2.038-6.277 5.126-7.466l9.665-3.72c1.524-5.125 3.575-10.069 6.126-14.777l-4.206-9.471c-1.344-3.024-.686-6.563 1.654-8.904l15.55-15.551c2.34-2.34 5.879-2.998 8.904-1.655l9.474 4.208c4.707-2.551 9.651-4.602 14.774-6.126l3.721-9.666c1.188-3.089 4.156-5.126 7.466-5.126h21.991c3.31 0 6.277 2.038 7.466 5.126l3.721 9.666c5.123 1.524 10.068 3.575 14.775 6.126l9.473-4.208c3.024-1.343 6.563-.686 8.904 1.655l6.158 6.158 14.309-12.582c-3.986-5.405-7.467-11.237-10.354-17.456-8.014-17.264-10.918-36.072-8.628-54.545-2.746.542-5.696-.372-7.641-2.653-2.867-3.361-2.467-8.411.895-11.278l14.807-12.629c1.934-1.649 4.537-2.281 7.01-1.704 2.475.578 4.528 2.297 5.531 4.631l7.812 18.176c1.745 4.059-.131 8.764-4.19 10.509-1.03.443-2.102.652-3.155.652-1.994 0-3.919-.758-5.39-2.098-3.987 37.317 17.26 73.539 53.953 87.55 5.346 2.042 10.896 3.544 16.495 4.467 4.358.719 7.309 4.835 6.591 9.195zm-84.621 35.78c-2.462-.947-4.299-3.048-4.909-5.614-1.51-6.349-4.016-12.394-7.448-17.966-1.383-2.247-1.57-5.031-.5-7.442l3.629-8.17-7.783-7.783-8.174 3.631c-2.411 1.071-5.195.883-7.442-.5-5.572-3.431-11.616-5.937-17.962-7.447-2.566-.611-4.667-2.447-5.614-4.909l-3.209-8.338h-11.007l-3.209 8.338c-.947 2.462-3.047 4.298-5.613 4.909-6.346 1.51-12.39 4.016-17.963 7.447-2.247 1.383-5.03 1.569-7.441.5l-8.174-3.63-7.782 7.782 3.629 8.173c1.071 2.411.884 5.196-.5 7.442-3.431 5.572-5.937 11.615-7.447 17.963-.611 2.566-2.447 4.667-4.909 5.614l-8.338 3.209v11.006l8.335 3.208c2.462.947 4.298 3.048 4.909 5.614 1.511 6.351 4.017 12.396 7.448 17.967 1.383 2.247 1.57 5.031.5 7.442l-3.629 8.17 7.783 7.783 8.174-3.631c2.41-1.071 5.194-.884 7.442.5 5.572 3.431 11.616 5.937 17.962 7.447 2.566.611 4.666 2.447 5.613 4.909l3.21 8.338h11.006l3.208-8.335c.947-2.462 3.048-4.299 5.614-4.909 6.349-1.51 12.394-4.016 17.966-7.448 2.246-1.383 5.031-1.569 7.442-.5l8.17 3.629 7.782-7.783-3.63-8.174c-1.071-2.411-.884-5.195.5-7.441 3.431-5.573 5.937-11.617 7.447-17.963.611-2.566 2.447-4.666 4.909-5.613l8.338-3.21v-11.006zm7.02-317.789c0-44.249 36-80.249 80.249-80.249s80.249 36 80.249 80.249c0 41.55-31.742 75.821-72.249 79.849v9.12c10.825.396 21.713 2.535 32.252 6.56 9.549 3.646 18.467 8.736 26.434 15.017.954-2.54 3.169-4.535 6.032-5.064 4.344-.797 8.518 2.07 9.32 6.415l3.534 19.138c.461 2.499-.292 5.069-2.03 6.923-1.521 1.624-3.639 2.53-5.837 2.53-.312 0-.626-.018-.94-.055l-19.647-2.323c-4.388-.519-7.524-4.497-7.005-8.884.394-3.332 2.782-5.934 5.831-6.772-6.485-4.981-13.697-9.036-21.398-11.977-34.069-13.008-72.464-2.798-95.542 25.407-1.581 1.933-3.879 2.934-6.196 2.934-1.782 0-3.574-.592-5.061-1.809-3.419-2.797-3.923-7.838-1.125-11.257 16.769-20.495 40.34-32.984 65.38-36.086v-9.815c-40.509-4.031-72.251-38.302-72.251-79.851zm80.243-1.033h.006.007c9.652-.004 17.503-7.856 17.503-17.509 0-9.655-7.855-17.51-17.51-17.51s-17.51 7.855-17.51 17.51c.001 9.653 7.852 17.505 17.504 17.509zm-41.594 49.938c11.219 9.557 25.742 15.344 41.6 15.344s30.381-5.787 41.6-15.344c-3.959-19.601-21.186-33.933-41.59-33.938-.003 0-.006 0-.01 0s-.007 0-.01 0c-20.403.005-37.631 14.337-41.59 33.938zm-22.649-48.905c0 12.834 3.797 24.79 10.305 34.834 5.661-13.589 16.251-24.449 29.467-30.523-5.597-5.991-9.033-14.026-9.033-22.852 0-18.478 15.032-33.51 33.51-33.51s33.51 15.032 33.51 33.51c0 8.826-3.436 16.861-9.033 22.852 13.215 6.074 23.806 16.935 29.467 30.523 6.508-10.044 10.305-22 10.305-34.834 0-35.427-28.822-64.249-64.249-64.249s-64.249 28.822-64.249 64.249zm-38.23 326.501c0 27.408-22.298 49.706-49.706 49.706s-49.706-22.298-49.706-49.706c0-27.407 22.298-49.705 49.706-49.705s49.706 22.297 49.706 49.705zm-16 0c0-18.585-15.12-33.705-33.706-33.705s-33.706 15.12-33.706 33.705 15.12 33.706 33.706 33.706 33.706-15.121 33.706-33.706zm360.911-34.744c-6.596 11.274-13.417 22.934-15.063 50.448v10.701c0 7.454-4.333 13.899-10.602 16.998v4.94c0 7.709-4.63 14.346-11.249 17.31v4.628c0 10.459-8.509 18.969-18.968 18.969h-14.235c-10.459 0-18.969-8.509-18.969-18.969v-4.629c-6.619-2.964-11.249-9.601-11.249-17.31v-4.586c-6.666-2.944-11.335-9.608-11.335-17.351v-10.701c-1.647-27.513-8.467-39.174-15.063-50.448-4.381-7.487-8.862-15.176-10.938-26.486l-21.065-14.034c-10.45 13.465-24.167 24.017-39.992 30.693 1.848 2.108 2.535 5.124 1.531 7.953-1.164 3.279-4.248 5.327-7.54 5.327-.888 0-1.791-.149-2.675-.462l-18.34-6.508c-2.395-.85-4.244-2.787-4.981-5.219s-.274-5.07 1.246-7.106l11.835-15.854c2.643-3.541 7.655-4.269 11.196-1.625 2.587 1.931 3.664 5.127 3.03 8.09 20.236-9.021 36.2-25.663 44.337-46.974 7.384-19.341 7.42-40.65.1-60.001-1.563-4.132.52-8.75 4.652-10.313 4.13-1.565 8.75.52 10.313 4.652 8.708 23.02 8.666 48.366-.117 71.37-1.669 4.372-3.623 8.572-5.824 12.596l11.361 7.569c3.074-38.83 35.632-69.493 75.239-69.493 41.631 0 75.5 33.87 75.5 75.5-.002 19.591-6.17 30.132-12.135 40.325zm-83.024-39.831c0-4.238-3.447-7.686-7.685-7.686s-7.686 3.448-7.686 7.686 3.448 7.686 7.686 7.686h7.685zm23.313 23.686h-7.313v58.324h7.313zm-35.96 74.324v2.97c0 1.609 1.359 2.968 2.969 2.968h58.671c1.609 0 2.968-1.359 2.968-2.968v-2.97zm54.006 21.939h-42.67v2.969c0 1.609 1.36 2.969 2.969 2.969h36.733c1.609 0 2.968-1.359 2.968-2.969zm-11.249 24.907v-2.97h-20.173v2.97c0 1.609 1.359 2.969 2.969 2.969h14.235c1.609 0 2.969-1.359 2.969-2.969zm49.047-145.352c0-32.809-26.691-59.5-59.5-59.5s-59.5 26.692-59.5 59.5c0 15.256 4.387 22.754 9.942 32.247 6.285 10.74 13.978 23.889 16.642 50.259h13.259v-58.324h-7.685c-13.061 0-23.686-10.625-23.686-23.686s10.625-23.686 23.686-23.686c13.06 0 23.685 10.625 23.685 23.686v7.686h7.313v-7.686c0-13.06 10.625-23.686 23.686-23.686s23.686 10.625 23.686 23.686-10.625 23.686-23.686 23.686h-7.686v58.324h13.259c2.664-26.37 10.357-39.519 16.642-50.259 5.556-9.493 9.943-16.991 9.943-32.247zm-32.158 8.182c4.238 0 7.686-3.448 7.686-7.686s-3.448-7.686-7.686-7.686-7.686 3.448-7.686 7.686v7.686zm-27.342-90.5c4.418 0 8-3.582 8-8v-15.899c0-4.418-3.582-8-8-8s-8 3.582-8 8v15.899c0 4.419 3.582 8 8 8zm-57.838 9.642c1.482 2.567 4.171 4.001 6.936 4.001 1.357 0 2.733-.346 3.993-1.073 3.826-2.209 5.137-7.102 2.928-10.928l-7.95-13.77c-2.209-3.827-7.102-5.135-10.928-2.928-3.826 2.209-5.137 7.102-2.928 10.928zm104.748 2.928c1.26.728 2.635 1.073 3.993 1.073 2.765 0 5.454-1.435 6.936-4.001l7.95-13.77c2.209-3.826.898-8.719-2.928-10.928-3.827-2.209-8.719-.898-10.928 2.928l-7.95 13.77c-2.21 3.826-.899 8.719 2.927 10.928z"/></svg>