<svg height="512" viewBox="0 0 60 60" width="512" xmlns="http://www.w3.org/2000/svg"><g id="b"><path fill="#b2c2f2" d="m55 0h-50c-2.757 0-5 2.243-5 5v50c0 2.757 2.243 5 5 5h50c2.757 0 5-2.243 5-5v-50c0-2.757-2.243-5-5-5zm-50 2h50c1.654 0 3 1.346 3 3v3h-56v-3c0-1.654 1.346-3 3-3zm50 56h-50c-1.654 0-3-1.346-3-3v-45h56v45c0 1.654-1.346 3-3 3z"/><circle cx="6" cy="5" r="1"/><circle cx="10" cy="5" r="1"/><circle cx="14" cy="5" r="1"/><path fill="#b2c2f2" d="m26 6h8c.553 0 1-.448 1-1s-.447-1-1-1h-8c-.553 0-1 .448-1 1s.447 1 1 1z"/><path fill="#b2c2f2" d="m46 22h-6.051c-.503-5.046-4.773-9-9.949-9s-9.446 3.954-9.949 9h-6.051v-1.646c0-1.233-.74-2.327-1.886-2.786l-3.743-1.497c-.51-.204-1.095.044-1.3.557s.045 1.095.558 1.3l3.742 1.497c.382.153.629.518.629.929v26.646c0 1.654 1.346 3 3 3h.556c-.344.591-.556 1.268-.556 2 0 2.206 1.794 4 4 4s4-1.794 4-4c0-.732-.212-1.409-.556-2h14.113c-.344.591-.556 1.268-.556 2 0 2.206 1.794 4 4 4s4-1.794 4-4c0-.732-.212-1.409-.556-2h2.556c.553 0 1-.448 1-1s-.447-1-1-1h-31.001c-.552 0-1-.449-1-1v-2h29.86c1.979 0 3.682-1.479 3.96-3.439l2.139-14.998c.166-1.145-.174-2.305-.933-3.181-.76-.878-1.863-1.382-3.026-1.382zm-25 30c0 1.103-.897 2-2 2s-2-.897-2-2 .897-2 2-2 2 .897 2 2zm21 0c0 1.103-.897 2-2 2s-2-.897-2-2 .897-2 2-2 2 .897 2 2zm-12-37c4.411 0 8 3.589 8 8s-3.589 8-8 8-8-3.589-8-8 3.589-8 8-8zm17.979 11.279-2.14 15c-.139.981-.99 1.721-1.979 1.721h-29.86v-19h6.051c.503 5.046 4.773 9 9.949 9s9.446-3.954 9.949-9h6.051c.582 0 1.134.252 1.515.691.378.438.548 1.015.465 1.587z"/><path fill="#b2c2f2" d="m28.293 26.707c.188.188.443.293.707.293.032 0 .065-.001.099-.005.298-.029.567-.191.733-.44l4-6c.307-.459.183-1.081-.277-1.387-.461-.307-1.081-.183-1.387.277l-3.323 4.985-1.138-1.137c-.391-.391-1.023-.391-1.414 0s-.391 1.023 0 1.414z"/></g></svg>