<svg id="Layer_1" viewBox="0 0 512 512" xmlns="http://www.w3.org/2000/svg" data-name="Layer 1"><path fill="#028b9c" d="m112.488 220.975c59.82 0 108.488-48.667 108.488-108.488s-48.667-108.487-108.488-108.487-108.488 48.667-108.488 108.488 48.668 108.488 108.488 108.488zm0-14c-6.023 0-11.915-.573-17.628-1.656l22.999-85.832h88.858c-3.594 48.844-44.483 87.488-94.229 87.488zm26.124-101.488 58.973-34.048c5.052 10.431 8.24 21.926 9.132 34.048zm51.95-46.159-71.074 41.035v-82.104c29.504 2.171 55.283 17.95 71.074 41.069zm-85.074-41.069v93.306l-24.15 90.128c-36.841-12.902-63.338-48.015-63.338-89.205 0-49.746 38.644-90.634 87.488-94.228zm-40.568 268.388h-53.92c-3.866 0-7 3.134-7 7v207.353c0 3.866 3.134 7 7 7h53.92c3.866 0 7-3.134 7-7v-207.353c0-3.866-3.134-7-7-7zm-7 207.353h-39.92v-193.353h39.92zm328.871-124.92c-4.966-4.966-12.154-6.361-18.39-4.227-2.687-3.506-3-8.2-.674-12.109 10.188-17.128 15.574-36.769 15.574-56.798 0-61.348-49.91-111.258-111.258-111.258s-111.258 49.91-111.258 111.258 49.91 111.258 111.258 111.258c20.032 0 39.673-5.386 56.798-15.573 3.907-2.323 8.597-2.012 12.104.67-.63 1.841-.977 3.788-.977 5.794 0 4.766 1.851 9.24 5.21 12.601l60.428 60.428c5.736 5.735 13.271 8.604 20.806 8.604s15.07-2.868 20.808-8.604c11.473-11.474 11.473-30.141 0-41.614l-60.428-60.428zm-65.107 10.518c-14.962 8.9-32.127 13.605-49.641 13.605-53.628 0-97.258-43.63-97.258-97.258s43.63-97.258 97.258-97.258 97.258 43.63 97.258 97.258c0 17.512-4.705 34.677-13.605 49.64-5.338 8.973-4.599 19.755 1.604 27.787l-7.829 7.829c-8.031-6.203-18.811-6.941-27.787-1.604zm115.636 81.624c-6.015 6.014-15.802 6.014-21.814 0l-60.427-60.429c-.717-.716-1.11-1.675-1.11-2.7s.394-1.983 1.11-2.699l16.414-16.414c.744-.745 1.722-1.117 2.699-1.117s1.956.372 2.7 1.116l60.427 60.428c6.015 6.015 6.015 15.801 0 21.814zm-165.276-245.998c-44.51 0-80.722 36.211-80.722 80.722s36.212 80.722 80.722 80.722 80.721-36.212 80.721-80.722-36.211-80.722-80.721-80.722zm0 14c36.79 0 66.721 29.931 66.721 66.722 0 13.024-3.765 25.179-10.244 35.461-8.076-11.474-19.455-20.206-32.406-25.094 6.797-6.409 11.052-15.486 11.052-25.543 0-19.367-15.756-35.124-35.123-35.124s-35.124 15.756-35.124 35.124c0 10.057 4.255 19.133 11.052 25.542-12.951 4.888-24.33 13.619-32.406 25.094-6.479-10.281-10.244-22.437-10.244-35.461 0-36.791 29.932-66.722 66.722-66.722zm0 72.669s-.004 0-.006 0c-11.644-.004-21.117-9.478-21.117-21.123s9.477-21.124 21.124-21.124 21.123 9.476 21.123 21.124-9.472 21.119-21.116 21.123c-.003 0-.005 0-.008 0zm0 60.774c-18.468 0-35.204-7.545-47.297-19.711 9.864-16.574 27.939-27.059 47.285-27.063h.012.011c19.346.004 37.421 10.489 47.286 27.063-12.093 12.166-28.829 19.711-47.296 19.711zm-121.452-43.204h-53.921c-3.866 0-7 3.134-7 7v174.537c0 3.866 3.134 7 7 7h53.921c3.866 0 7-3.134 7-7v-174.537c0-3.866-3.134-7-7-7zm-7 174.537h-39.921v-160.537h39.921zm92.67-87.269h-53.92c-3.866 0-7 3.134-7 7v87.269c0 3.866 3.134 7 7 7h53.92c3.866 0 7-3.134 7-7v-87.269c0-3.866-3.134-7-7-7zm-7 87.269h-39.92v-73.269h39.92zm92.67-43.635h-53.92c-3.866 0-7 3.134-7 7v43.635c0 3.866 3.134 7 7 7h53.92c3.866 0 7-3.134 7-7v-43.635c0-3.866-3.134-7-7-7zm-7 43.635h-39.92v-29.635h39.92zm186.068-490h-49.831c-3.866 0-7 3.134-7 7v49.831c0 3.866 3.134 7 7 7h49.831c3.866 0 7-3.134 7-7v-49.831c0-3.866-3.134-7-7-7zm-7 49.831h-35.831v-35.831h35.831zm7 30.893h-49.831c-3.866 0-7 3.134-7 7v49.831c0 3.866 3.134 7 7 7h49.831c3.866 0 7-3.134 7-7v-49.831c0-3.866-3.134-7-7-7zm-7 49.831h-35.831v-35.831h35.831zm7 30.894h-49.831c-3.866 0-7 3.134-7 7v49.831c0 3.866 3.134 7 7 7h49.831c3.866 0 7-3.134 7-7v-49.831c0-3.866-3.134-7-7-7zm-7 49.831h-35.831v-35.831h35.831zm7 30.893h-49.831c-3.866 0-7 3.134-7 7v49.831c0 3.866 3.134 7 7 7h49.831c3.866 0 7-3.134 7-7v-49.831c0-3.866-3.134-7-7-7zm-7 49.831h-35.831v-35.831h35.831zm-59.58-98.64c0 3.866-3.134 7-7 7h-67.251c-3.866 0-7-3.134-7-7s3.134-7 7-7h67.251c3.866 0 7 3.134 7 7zm0 80.724c0 3.866-3.134 7-7 7h-27.75c-3.866 0-7-3.134-7-7s3.134-7 7-7h27.75c3.866 0 7 3.134 7 7zm-159.252-174.531c0-3.866 3.134-7 7-7h145.252c3.866 0 7 3.134 7 7s-3.134 7-7 7h-145.252c-3.866 0-7-3.134-7-7zm159.252 26.166c0 3.866-3.134 7-7 7h-102.502c-3.866 0-7-3.134-7-7s3.134-7 7-7h102.502c3.866 0 7 3.134 7 7zm0-80.724c0 3.866-3.134 7-7 7h-102.502c-3.866 0-7-3.134-7-7s3.134-7 7-7h102.502c3.866 0 7 3.134 7 7zm-159.252-26.166c0-3.866 3.134-7 7-7h145.252c3.866 0 7 3.134 7 7s-3.134 7-7 7h-145.252c-3.866 0-7-3.134-7-7z"/></svg>