<?xml version="1.0" encoding="UTF-8"?>
<svg xmlns="http://www.w3.org/2000/svg" id="Layer_1" data-name="Layer 1" viewBox="0 0 512 512" width="512" height="512"><path fill="#b2c2f2" d="M8,512H323.321a8,8,0,0,0,8-8V427.493a54.483,54.483,0,0,0-37.744-52.424l-80.8-26.934V322.621c0-.276-.014-.55-.041-.819a76.906,76.906,0,0,0,23.288-30.587,30.8,30.8,0,0,0,23.6-50.493c1.192-5.512,3.19-15.685,4.053-21.538.263-1.794.524-3.477.771-5.069,2.321-14.955,3.72-23.981-5.274-40.916A106.7,106.7,0,0,0,63.944,188.908a7.986,7.986,0,0,0-.321,1.284c-2.667,16.276-.4,33.267,6.723,50.545A30.8,30.8,0,0,0,93.9,291.214a77.48,77.48,0,0,0,24.025,31.169c.2.156.411.3.615.453v25.3l-80.8,26.933A54.483,54.483,0,0,0,0,427.493V504A8,8,0,0,0,8,512ZM185.318,405.469,182.1,423.858H149.219l-2.876-16.447a7.962,7.962,0,0,0-.824-2.384l20.142-14.3,19.811,14.069C185.414,405.014,185.359,405.238,185.318,405.469ZM151.4,439.858h28.531L189.745,496h-48.17Zm163.926-12.365V496H277.065V460.994a8,8,0,0,0-16,0V496H205.987l-10.131-57.922,4.032-23.049,22.9,16.262a8,8,0,0,0,12.632-6.522V372.546l53.1,17.7A38.7,38.7,0,0,1,315.321,427.493Zm-95.9-60.281v42.063l-39.941-28.364,25.887-18.384Zm21.56-92.9a77.066,77.066,0,0,0-.305-27.936,14.8,14.8,0,0,1,.305,27.936ZM79.309,193.43a90.7,90.7,0,0,1,165.733-12.725c6.5,12.234,5.767,16.953,3.595,30.958-.253,1.63-.52,3.353-.791,5.191-.546,3.709-1.588,9.311-2.559,14.185a30.676,30.676,0,0,0-9.363-1.459h-.285c-9.045-29.848-19.262-45.3-32.054-48.536-5.609-1.421-14.349-1.04-24.111,8.833a7.976,7.976,0,0,0-1.2,1.551c-14.63,24.721-40.758,36.528-77.641,35.1a7.985,7.985,0,0,0-6.589,3.048,30.676,30.676,0,0,0-10.214,1.751C78.976,218.238,77.454,205.516,79.309,193.43Zm-.07,66.969a14.832,14.832,0,0,1,9.471-13.805,79.159,79.159,0,0,0,.115,27.652A14.83,14.83,0,0,1,79.239,260.4Zm26.772-17.75h.636c39.335,0,67.859-14.166,84.854-42.163,2.4-2.3,5.564-4.594,8.161-3.931,2.449.619,11.234,5.35,21.427,40.215a7.827,7.827,0,0,0,.3.844A61.158,61.158,0,0,1,127.681,309.7,62.816,62.816,0,0,1,106.011,242.649Zm58.96,95.715a77.228,77.228,0,0,0,31.81-6.86V349l-31.12,22.1L134.54,349V332.13A77.238,77.238,0,0,0,164.971,338.364Zm-39.014,24.163,25.887,18.384L111.9,409.275V367.212ZM16,427.493a38.7,38.7,0,0,1,26.8-37.246l53.1-17.7v52.223a8,8,0,0,0,12.632,6.522l22.9-16.261,4.031,23.048L125.333,496H70.255V460.994a8,8,0,0,0-16,0V496H16ZM512,177.14a8,8,0,0,1-8,8H293.315a8,8,0,0,1,0-16h30.363v-49.8a8,8,0,0,1,16,0v49.8h28.653V78.714a8,8,0,0,1,16,0V169.14h28.653V96.831a8,8,0,1,1,16,0V169.14h28.654V55.655a8,8,0,0,1,16,0V169.14H504A8,8,0,0,1,512,177.14ZM460.214,2.119A8,8,0,0,1,471.06,13.881L426.407,55.057a8,8,0,0,1-8.43,1.532L377.99,40.365,337.062,77.6a8,8,0,0,1-10.768-11.834l44.653-40.627a8,8,0,0,1,8.392-1.5l39.952,16.209ZM291.577,252.3a8,8,0,0,0-6.263,7.809V280.3a8,8,0,0,0,6.263,7.809l6.135,1.365a61.921,61.921,0,0,0,3.767,9.086l-3.375,5.305a8,8,0,0,0,1.093,9.952l14.277,14.274a8,8,0,0,0,9.95,1.093l5.305-3.374a61.85,61.85,0,0,0,9.087,3.767l1.364,6.134a8,8,0,0,0,7.809,6.263h20.188a8,8,0,0,0,7.809-6.263l1.364-6.134a61.79,61.79,0,0,0,9.088-3.767l5.3,3.374a8,8,0,0,0,9.95-1.093l14.277-14.274a8,8,0,0,0,1.093-9.952l-3.375-5.305a62.017,62.017,0,0,0,3.768-9.086l6.134-1.365a8,8,0,0,0,6.263-7.809V260.107a8,8,0,0,0-6.263-7.809l-6.135-1.364a61.876,61.876,0,0,0-3.767-9.086l3.375-5.306a8,8,0,0,0-1.094-9.951l-14.275-14.275a8,8,0,0,0-9.951-1.092l-5.3,3.374a62.022,62.022,0,0,0-9.088-3.768l-1.364-6.134a8,8,0,0,0-7.809-6.262H346.989a8,8,0,0,0-7.809,6.262l-1.364,6.134a61.847,61.847,0,0,0-9.087,3.768l-5.305-3.374a8,8,0,0,0-9.951,1.092L299.2,226.591a8,8,0,0,0-1.094,9.951l3.375,5.306a61.938,61.938,0,0,0-3.768,9.087Zm9.737,14.225,4.543-1.009a8,8,0,0,0,6.05-5.979,46.067,46.067,0,0,1,5.694-13.727,8,8,0,0,0-.051-8.507l-2.5-3.933,5.2-5.2,3.933,2.5a8,8,0,0,0,8.5.051,46.048,46.048,0,0,1,13.729-5.693,8,8,0,0,0,5.979-6.049l1.009-4.543h7.356l1.01,4.543a8,8,0,0,0,5.979,6.05,46.022,46.022,0,0,1,13.729,5.693,8,8,0,0,0,8.5-.052l3.933-2.5,5.2,5.2-2.5,3.933a8,8,0,0,0-.051,8.507,46.055,46.055,0,0,1,5.694,13.729,8,8,0,0,0,6.05,5.977l4.543,1.009v7.357l-4.543,1.01a8,8,0,0,0-6.05,5.978,46.062,46.062,0,0,1-5.694,13.728,8,8,0,0,0,.051,8.507l2.5,3.932-5.2,5.2-3.933-2.5a8,8,0,0,0-8.5-.05,46.072,46.072,0,0,1-13.729,5.692,8,8,0,0,0-5.978,6.05l-1.01,4.543h-7.356l-1.009-4.543a8,8,0,0,0-5.98-6.051,46.029,46.029,0,0,1-13.728-5.692,8,8,0,0,0-8.5.051l-3.933,2.5-5.2-5.2,2.5-3.932a8,8,0,0,0,.051-8.507,46.061,46.061,0,0,1-5.694-13.73,8,8,0,0,0-6.05-5.976l-4.543-1.01ZM357.083,304.1a33.9,33.9,0,1,0-33.9-33.9A33.937,33.937,0,0,0,357.083,304.1Zm0-51.8a17.9,17.9,0,1,1-17.9,17.9A17.919,17.919,0,0,1,357.083,252.3Z"/></svg>
