<?xml version="1.0" encoding="UTF-8" standalone="no"?>
<!-- Created with Inkscape (http://www.inkscape.org/) -->

<svg
   version="1.1"
   id="svg1782"
   xml:space="preserve"
   width="682.66669"
   height="682.66669"
   viewBox="0 0 682.66669 682.66669"
   xmlns="http://www.w3.org/2000/svg"
   xmlns:svg="http://www.w3.org/2000/svg"><defs
     id="defs1786"><clipPath
       clipPathUnits="userSpaceOnUse"
       id="clipPath1800"><path
         d="M 0,512 H 512 V 0 H 0 Z"
         id="path1798" /></clipPath></defs><g
     id="g1788"
     transform="matrix(1.3333333,0,0,-1.3333333,0,682.66667)"><g
       id="g1790"
       transform="translate(184.875,384.7026)"><path
         d="M 0,0 H 142.25"
         style="fill:none;stroke:#b2c2f2;stroke-width:15;stroke-linecap:round;stroke-linejoin:round;stroke-miterlimit:10;stroke-dasharray:none;stroke-opacity:1"
         id="path1792" /></g><g
       id="g1794"><g
         id="g1796"
         clip-path="url(#clipPath1800)"><g
           id="g1802"
           transform="translate(143.999,311.9048)"><path
             d="m 0,0 v -19.512 c 0,-5.07 4.11,-9.18 9.18,-9.18 h 205.642 c 5.07,0 9.18,4.11 9.18,9.18 V 0 c 0,5.07 -4.11,9.18 -9.18,9.18 H 9.18 C 4.11,9.18 0,5.07 0,0 Z"
             style="fill:none;stroke:#b2c2f2;stroke-width:15;stroke-linecap:round;stroke-linejoin:round;stroke-miterlimit:10;stroke-dasharray:none;stroke-opacity:1"
             id="path1804" /></g><g
           id="g1806"
           transform="translate(143.999,227.0137)"><path
             d="m 0,0 v -19.512 c 0,-5.07 4.11,-9.179 9.18,-9.179 h 205.642 c 5.07,0 9.18,4.109 9.18,9.179 V 0 c 0,5.07 -4.11,9.18 -9.18,9.18 H 9.18 C 4.11,9.18 0,5.07 0,0 Z"
             style="fill:none;stroke:#b2c2f2;stroke-width:15;stroke-linecap:round;stroke-linejoin:round;stroke-miterlimit:10;stroke-dasharray:none;stroke-opacity:1"
             id="path1808" /></g><g
           id="g1810"
           transform="translate(273.4448,145.9116)"><path
             d="m 0,0 h -34.89 c -10.063,0 -18.221,-8.158 -18.221,-18.222 v -1.019 c 0,-10.064 8.158,-18.222 18.221,-18.222 H 0 c 10.063,0 18.222,8.158 18.222,18.222 v 1.019 C 18.222,-8.158 10.063,0 0,0 Z"
             style="fill:none;stroke:#b2c2f2;stroke-width:15;stroke-linecap:round;stroke-linejoin:round;stroke-miterlimit:10;stroke-dasharray:none;stroke-opacity:1"
             id="path1812" /></g><g
           id="g1814"
           transform="translate(413.2954,504.5)"><path
             d="m 0,0 h -314.591 c -11.85,0 -21.457,-9.607 -21.457,-21.458 V -75.812 H 21.458 v 54.354 C 21.458,-9.607 11.851,0 0,0 Z"
             style="fill:none;stroke:#b2c2f2;stroke-width:15;stroke-linecap:round;stroke-linejoin:round;stroke-miterlimit:10;stroke-dasharray:none;stroke-opacity:1"
             id="path1816" /></g><g
           id="g1818"
           transform="translate(77.2466,369.7036)"><path
             d="m 0,0 v -303.182 c 0,-11.851 9.607,-21.458 21.458,-21.458 H 214.42"
             style="fill:none;stroke:#b2c2f2;stroke-width:15;stroke-linecap:round;stroke-linejoin:round;stroke-miterlimit:10;stroke-dasharray:none;stroke-opacity:1"
             id="path1820" /></g><g
           id="g1822"
           transform="translate(421.6475,46.75)"><path
             d="m 0,0 c 7.702,3.258 13.106,10.884 13.106,19.772 v 416.52 c 0,11.851 -9.607,21.458 -21.458,21.458 h -314.591 c -11.85,0 -21.458,-9.607 -21.458,-21.458 v -83.339"
             style="fill:none;stroke:#b2c2f2;stroke-width:15;stroke-linecap:round;stroke-linejoin:round;stroke-miterlimit:10;stroke-dasharray:none;stroke-opacity:1"
             id="path1824" /></g><g
           id="g1826"
           transform="translate(124.8501,482.0391)"><path
             d="m 0,0 c -8.53,0 -15.445,-6.915 -15.445,-15.445 0,-8.53 6.915,-15.445 15.445,-15.445 8.53,0 15.445,6.915 15.445,15.445 C 15.445,-6.915 8.53,0 0,0 Z"
             style="fill:none;stroke:#b2c2f2;stroke-width:15;stroke-linecap:round;stroke-linejoin:round;stroke-miterlimit:10;stroke-dasharray:none;stroke-opacity:1"
             id="path1828" /></g><g
           id="g1830"
           transform="translate(184.875,482.0391)"><path
             d="m 0,0 c -8.53,0 -15.445,-6.915 -15.445,-15.445 0,-8.53 6.915,-15.445 15.445,-15.445 8.53,0 15.445,6.915 15.445,15.445 C 15.445,-6.915 8.53,0 0,0 Z"
             style="fill:none;stroke:#b2c2f2;stroke-width:15;stroke-linecap:round;stroke-linejoin:round;stroke-miterlimit:10;stroke-dasharray:none;stroke-opacity:1"
             id="path1832" /></g><g
           id="g1834"
           transform="translate(244.9004,482.0391)"><path
             d="m 0,0 c -8.53,0 -15.445,-6.915 -15.445,-15.445 0,-8.53 6.915,-15.445 15.445,-15.445 8.53,0 15.445,6.915 15.445,15.445 C 15.445,-6.915 8.53,0 0,0 Z"
             style="fill:none;stroke:#b2c2f2;stroke-width:15;stroke-linecap:round;stroke-linejoin:round;stroke-miterlimit:10;stroke-dasharray:none;stroke-opacity:1"
             id="path1836" /></g><g
           id="g1838"
           transform="translate(407.856,81.5386)"><path
             d="m 0,0 -77.813,44.925 c -3.525,2.035 -7.932,-0.508 -7.932,-4.579 v -89.851 c 0,-4.07 4.407,-6.615 7.932,-4.579 l 20.045,11.572 c 2.95,1.703 6.721,0.693 8.424,-2.257 l 15.189,-26.308 c 1.635,-2.832 5.257,-3.802 8.09,-2.167 l 16.784,9.691 c 2.833,1.635 3.803,5.257 2.168,8.089 l -15.189,26.308 c -1.703,2.949 -0.692,6.721 2.258,8.424 L 0,-9.159 C 3.525,-7.124 3.525,-2.035 0,0 Z"
             style="fill:none;stroke:#b2c2f2;stroke-width:15;stroke-linecap:round;stroke-linejoin:round;stroke-miterlimit:10;stroke-dasharray:none;stroke-opacity:1"
             id="path1840" /></g></g></g></g></svg>
