<?xml version="1.0" encoding="UTF-8"?>
<svg xmlns="http://www.w3.org/2000/svg" id="Outline" viewBox="0 0 512 512" width="512" height="512"><path fill="#028b9c" d="M448,96a8,8,0,0,0,8-8V56a40.045,40.045,0,0,0-40-40H96A40.045,40.045,0,0,0,56,56V488a8,8,0,0,0,8,8H384a8,8,0,0,0,8-8V363.315l53.172-53.173a36.972,36.972,0,0,0,0-52.285l-23.029-23.029A36.736,36.736,0,0,0,396,224a37.642,37.642,0,0,0-4,.219V96ZM416,32a24.028,24.028,0,0,1,24,24V80H392V56A24.028,24.028,0,0,1,416,32ZM241.805,421.119,258.881,438.2l-23.48,6.4Zm34.855,12.227L246.654,403.34l4.592-16.837a56.1,56.1,0,0,1,9.169-18.774l51.855,51.856a56.081,56.081,0,0,1-18.773,9.169ZM352,275.315,360.685,284,280,364.685,271.315,356ZM291.315,376,372,295.315,384.685,308,304,388.685Zm72-112L368,259.314,420.686,312,416,316.686ZM324,408.685,315.315,400,396,319.315,404.685,328Zm86.828-162.542,23.029,23.029a20.967,20.967,0,0,1,0,29.656L432,300.685,379.315,248l1.857-1.857a20.967,20.967,0,0,1,29.656,0Zm-40.971-11.315-115.5,115.5a72.134,72.134,0,0,0-18.551,31.969L217.89,448H128a8,8,0,0,1,0-16h16a8,8,0,0,0,8-8V384h24a8,8,0,0,0,8-8V312a8,8,0,0,0-8-8H152V272h24a8,8,0,0,0,8-8V240h32v24a8,8,0,0,0,8,8h64a8,8,0,0,0,8-8V200a8,8,0,0,0-8-8H224a8,8,0,0,0-8,8v24H184V200a8,8,0,0,0-8-8H152V160h24a8,8,0,0,0,8-8V88a8,8,0,0,0-8-8H112a8,8,0,0,0-8,8v64a8,8,0,0,0,8,8h24v32H112a8,8,0,0,0-8,8v64a8,8,0,0,0,8,8h24v32H112a8,8,0,0,0-8,8v64a8,8,0,0,0,8,8h24v32h-8a24,24,0,0,0,0,48h96a7.973,7.973,0,0,0,2.1-.282l71.6-19.528a72.136,72.136,0,0,0,31.968-18.551L376,379.315V480H72V56A24.028,24.028,0,0,1,96,32H384.019A39.794,39.794,0,0,0,376,56V229.873A37.338,37.338,0,0,0,369.857,234.828ZM168,320v48H120V320Zm0-112v48H120V208Zm64,48V208h48v48ZM120,144V96h48v48Z"/><path fill="#028b9c" d="M240,96h32a8,8,0,0,0,0-16H240a8,8,0,0,0,0,16Z"/><path fill="#028b9c" d="M336,112H224a8,8,0,0,0,0,16H336a8,8,0,0,0,0-16Z"/><path fill="#028b9c" d="M336,144H224a8,8,0,0,0,0,16H336a8,8,0,0,0,0-16Z"/><path fill="#028b9c"   d="M336,80H304a8,8,0,0,0,0,16h32a8,8,0,0,0,0-16Z"/></svg>
