<svg id="Layer_1" height="512" viewBox="0 0 66 66" width="512" xmlns="http://www.w3.org/2000/svg" fill="#028b9c"><g><path d="m44.4 54.3h-2.7v-2.3c0-.5-.4-1-1-1h-15.4c-.5 0-1 .4-1 1v2.3h-2.7c-.5 0-1 .4-1 1 0 .5.4 1 1 1h2.7v2.4c0 .5.4 1 1 1h1.3c.5 3.1 3.1 5.4 6.3 5.4s5.9-2.4 6.3-5.4h1.3c.5 0 1-.4 1-1v-2.4h2.7c.5 0 1-.4 1-1 .2-.6-.3-1-.8-1z"/><path d="m41.8 25.7c-.3-.1-.5-.3-.6-.6-.2-.4-.3-.8-.5-1.3-.1-.3-.1-.6 0-.9l1.2-2.5-1.7-1.7-2.4 1.3c-.3.1-.6.1-.9 0-.4-.2-.8-.4-1.2-.5-.4 0-.7-.2-.7-.5l-.9-2.6h-2.4l-.8 2.6c-.1.3-.3.5-.6.6-.5.2-.9.3-1.2.5-.3.1-.6.2-.9 0l-2.5-1.1-1.7 1.7 1.3 2.4c.1.3.1.6 0 .9-.2.4-.4.8-.5 1.2-.1.3-.3.5-.6.6l-2.6.9v2.4l2.6.8c.3.1.5.3.6.6.1.4.3.8.5 1.2.1.3.1.6 0 .9l-1.2 2.5 1.7 1.7 2.4-1.3c.1-.1.3-.1.4-.1s.3 0 .4.1c.5.2.9.4 1.2.5s.6.3.7.6l.9 2.6h2.4l.8-2.6c.1-.3.3-.5.6-.6.4-.1.8-.3 1.2-.5.3-.1.6-.1.9 0l2.5 1.2 1.8-1.7-1.3-2.4c-.1-.3-.1-.6 0-.9.2-.4.4-.8.5-1.2.1-.3.3-.5.6-.6l2.6-.9v-2.4zm-8.8 6.8c-2.6 0-4.6-2.1-4.6-4.6 0-2.6 2.1-4.6 4.6-4.6s4.6 2.1 4.6 4.6-2 4.6-4.6 4.6z"/><path d="m33 25.2c-1.5 0-2.7 1.2-2.7 2.7s1.2 2.7 2.7 2.7 2.7-1.2 2.7-2.7-1.2-2.7-2.7-2.7z"/><path d="m33.9 9.5c-10.5-.5-19.2 7.9-19.2 18.3 0 5.5 2.4 10.6 6.6 14.1 2.3 1.9 3.9 4.4 4.7 7.1h14c.7-2.7 2.2-5.1 4.4-6.8 4.5-3.5 7-8.8 7-14.5-.1-9.6-7.9-17.8-17.5-18.2zm12.5 16.3v3.8c0 .4-.3.8-.7.9l-2.8 1c-.1.2-.2.4-.2.6l1.4 2.6c.2.4.1.8-.2 1.1l-2.7 2.7c-.3.3-.7.4-1.1.2l-2.7-1.3c-.2.1-.4.2-.6.2l-.8 3c-.1.4-.5.7-.9.7h-3.8c-.4 0-.8-.3-.9-.7l-.9-2.8c-.2-.1-.4-.1-.6-.2l-2.6 1.4c-.4.2-.8.1-1.1-.2l-2.7-2.7c-.3-.3-.4-.7-.2-1.1l1.3-2.7c-.1-.2-.2-.4-.3-.6l-2.8-.9c-.4-.1-.7-.5-.7-.9v-3.8c0-.4.3-.8.7-.9l2.8-1c.1-.2.2-.4.2-.6l-1.6-2.6c-.2-.4-.1-.8.2-1.1l2.7-2.7c.3-.3.7-.4 1.1-.2l2.7 1.3c.2-.1.4-.2.6-.3l.9-2.8c.1-.4.5-.7.9-.7h3.8c.4 0 .8.3.9.7l.9 2.8c.2.1.4.2.6.2l2.6-1.4c.4-.2.8-.1 1.1.2l2.7 2.6c.3.3.4.7.2 1.1l-1.3 2.7c.1.2.2.4.3.6l2.8.9c.5.1.8.5.8.9z"/><path d="m58.9 26.9h-3.9c-.5 0-1 .4-1 1s.4 1 1 1h3.9c.5 0 1-.4 1-1s-.5-1-1-1z"/><path d="m52.5 17.7 3.4-2c.5-.3.6-.9.4-1.3-.3-.5-.9-.6-1.3-.4l-3.4 2c-.5.3-.6.9-.4 1.3.3.5.9.7 1.3.4z"/><path d="m43.5 9.7c.5.3 1.1.1 1.3-.4l2-3.4c.3-.5.1-1.1-.4-1.3-.4-.3-1-.1-1.3.4l-2 3.4c-.2.4-.1 1 .4 1.3z"/><path d="m33 6.9c.5 0 1-.4 1-1v-3.9c0-.5-.4-1-1-1s-1 .4-1 1v3.9c0 .5.5 1 1 1z"/><path d="m21.2 9.3c.3.5.9.6 1.3.4.5-.3.6-.9.4-1.3l-2-3.4c-.3-.5-.9-.6-1.3-.4-.5.3-.6.9-.4 1.3z"/><path d="m10.1 15.8 3.4 2c.5.3 1.1.1 1.3-.4.3-.5.1-1.1-.4-1.3l-3.4-2c-.5-.3-1.1-.1-1.3.4-.2.4-.1 1 .4 1.3z"/><path d="m12 27.9c0-.5-.4-1-1-1h-3.9c-.5 0-1 .4-1 1s.4 1 1 1h3.9c.5-.1 1-.5 1-1z"/><path d="m13.5 38-3.4 2c-.5.3-.6.9-.4 1.3.3.5.9.6 1.3.4l3.4-2c.5-.3.6-.9.4-1.3-.3-.5-.9-.7-1.3-.4z"/><path d="m20.9 50.8 2-3.4c.3-.5.1-1.1-.4-1.3-.5-.3-1.1-.1-1.3.4l-2 3.4c-.3.5-.1 1.1.4 1.3.4.2 1 0 1.3-.4z"/><path d="m44.8 46.4c-.3-.5-.9-.6-1.3-.4-.5.3-.6.9-.4 1.3l2 3.4c.2.3.5.5.8.5.2 0 .3 0 .5-.1.5-.3.6-.9.4-1.3z"/><path d="m55.9 40-3.4-2c-.5-.3-1.1-.1-1.3.4-.3.5-.1 1.1.4 1.3l3.4 2c.5.3 1.1.1 1.3-.4s.1-1.1-.4-1.3z"/></g></svg>