<svg id="Layer_1" enable-background="new 0 0 512 512" viewBox="0 0 512 512" xmlns="http://www.w3.org/2000/svg"><path  fill="#f1a31b" d="m401.23 316-21.73-1.01c-1.01-.05-1.74-.63-2.02-1.6-2.63-9.2-6.33-18.12-11-26.51-.49-.88-.38-1.81.3-2.56l14.66-16.09c5.12-5.62 4.92-14.24-.46-19.61l-25.43-25.43c-5.38-5.38-13.99-5.58-19.62-.46l-16.08 14.66c-.75.68-1.68.79-2.56.3-8.39-4.66-17.31-8.36-26.52-11-.97-.28-1.55-1.01-1.6-2.02l-1.01-21.73c-.35-7.6-6.58-13.55-14.19-13.55h-35.97c-7.61 0-13.84 5.95-14.19 13.55l-1.01 21.73c-.05 1.01-.63 1.74-1.6 2.02-9.21 2.63-18.13 6.33-26.51 11-.88.49-1.81.38-2.56-.3l-16.09-14.66c-5.62-5.12-14.24-4.92-19.61.45l-25.43 25.43c-5.38 5.38-5.58 13.99-.46 19.61l14.66 16.09c.68.75.79 1.68.3 2.56-4.66 8.39-8.36 17.31-11 26.51-.28.97-1.01 1.55-2.02 1.6l-21.71 1.02c-7.6.35-13.55 6.58-13.55 14.19v35.97c0 7.6 5.95 13.84 13.55 14.19l21.73 1.01c1.01.05 1.74.63 2.02 1.6 2.63 9.2 6.33 18.12 11 26.51.49.88.38 1.82-.3 2.56l-14.66 16.09c-5.12 5.62-4.92 14.24.46 19.61l25.43 25.43c.1.1.21.19.32.29v17.55c0 3.31 2.69 6 6 6h184.94c3.31 0 6-2.69 6-6v-16.28c.66-.47 1.29-.98 1.86-1.56l25.43-25.43c5.38-5.38 5.58-13.99.46-19.61l-14.66-16.08c-.68-.75-.79-1.68-.3-2.56 4.66-8.39 8.36-17.31 11-26.52.28-.97 1.01-1.55 2.02-1.6l21.73-1.01c7.6-.35 13.55-6.59 13.55-14.19v-35.97c-.02-7.61-5.97-13.84-13.57-14.19zm-59.54 169h-26.08v-19.78c0-3.31-2.69-6-6-6s-6 2.69-6 6v19.78h-96.77v-19.78c0-3.31-2.69-6-6-6s-6 2.69-6 6v19.78h-26.08v-17.65c0-26.24 15.89-49.38 40-58.98l41.33 68.34c1.09 1.8 3.03 2.9 5.13 2.9s4.05-1.1 5.13-2.9l41.33-68.34c24.11 9.59 40 32.74 40 58.98v17.65zm-40.79-89.64c-2.64-.84-5.51.24-6.94 2.61l-21.23 35.11-2.44-15.64 11.5-16.09c1.31-1.83 1.48-4.23.45-6.23s-3.09-3.25-5.33-3.25h-43.36c-2.25 0-4.31 1.26-5.33 3.25-1.03 2-.85 4.4.45 6.23l11.52 16.12-2.45 15.63-21.25-35.13c-1.43-2.37-4.3-3.45-6.94-2.61-3.93 1.25-7.71 2.79-11.3 4.59-12.81-14.25-19.82-32.46-19.82-51.78 0-42.77 34.8-77.57 77.57-77.57s77.57 34.8 77.57 77.57c0 19.6-7.19 38.01-20.32 52.33-3.9-2.04-8.02-3.77-12.35-5.14zm-49.53 17.13-6.17-8.63h20.04l-6.14 8.59c-.91 1.28-1.29 2.86-1.05 4.41l5.01 32.18-7.84 12.97-7.84-12.96 5.03-32.15c.25-1.55-.12-3.13-1.04-4.41zm151.41-46.33c0 1.18-.92 2.15-2.1 2.21l-21.72 1.01c-6.19.29-11.3 4.32-13 10.29-2.38 8.33-5.73 16.4-9.95 23.98-3.01 5.42-2.26 11.89 1.92 16.47l14.66 16.08c.8.87.76 2.21-.07 3.05l-19.32 19.32c-2.4-20.81-13.26-39.33-29.64-51.59 14.24-16.3 22.03-36.91 22.03-58.81 0-49.39-40.18-89.57-89.57-89.57s-89.57 40.18-89.57 89.57c0 21.55 7.57 41.91 21.42 58.1-16.54 11.98-27.64 30.27-30.4 50.92l-17.95-17.95c-.83-.84-.87-2.17-.07-3.05l14.66-16.09c4.18-4.58 4.93-11.05 1.92-16.47-4.22-7.59-7.57-15.66-9.95-23.98-1.7-5.96-6.81-10-13-10.29l-21.73-1.01c-1.18-.06-2.11-1.02-2.11-2.21v-35.97c0-1.18.92-2.15 2.1-2.2l21.73-1.01c6.19-.29 11.29-4.33 13-10.29 2.38-8.33 5.73-16.39 9.95-23.98 3.01-5.42 2.26-11.89-1.92-16.47l-14.66-16.09c-.79-.87-.76-2.21.07-3.05l25.44-25.43c.84-.83 2.17-.86 3.04-.07l16.09 14.66c4.59 4.18 11.05 4.93 16.47 1.92 7.58-4.22 15.65-7.56 23.98-9.95 5.96-1.7 10-6.81 10.29-13l1.01-21.73c.05-1.18 1.02-2.1 2.2-2.1h35.97c1.18 0 2.15.92 2.2 2.1l1.01 21.73c.29 6.19 4.33 11.29 10.29 13 8.33 2.38 16.4 5.73 23.98 9.94 5.42 3.01 11.89 2.26 16.47-1.92l16.08-14.66c.87-.8 2.21-.77 3.05.07l25.43 25.43c.83.84.87 2.17.07 3.05l-14.66 16.09c-4.18 4.59-4.93 11.05-1.92 16.47 4.22 7.6 7.57 15.66 9.95 23.98 1.71 5.96 6.81 10 13 10.28l21.73 1.01c1.18.05 2.1 1.02 2.1 2.2zm-147.53-66.39c-12.95 0-22.77 3.85-30.89 12.11-11.08 11.27-13.86 34.19-6.32 52.17 6.7 15.99 20.26 25.16 37.19 25.16 16.92 0 30.47-9.17 37.17-25.15 7.54-17.98 4.77-40.9-6.32-52.18-8.11-8.26-17.91-12.11-30.83-12.11zm26.09 59.65c-3.4 8.12-10.7 17.79-26.11 17.79-15.42 0-22.72-9.68-26.12-17.8-5.62-13.39-3.87-31.31 3.81-39.12 5.87-5.97 12.55-8.52 22.33-8.52 9.74 0 16.41 2.55 22.28 8.52 7.68 7.81 9.43 25.73 3.81 39.13zm197.29-225.31-51.34-65.92c-1.14-1.46-2.88-2.31-4.73-2.31s-3.6.85-4.73 2.31l-51.34 65.92c-1.41 1.81-1.66 4.26-.66 6.32s3.1 3.37 5.39 3.37h25.01v105.86c0 3.31 2.69 6 6 6h40.67c3.31 0 6-2.69 6-6v-105.86h25.01c2.29 0 4.38-1.31 5.39-3.37s.74-4.51-.67-6.32zm-35.74-2.31c-3.31 0-6 2.69-6 6v105.86h-28.67v-105.86c0-3.31-2.69-6-6-6h-18.73l39.06-50.16 39.06 50.16zm-327.11 117.86v-105.86h25.01c2.29 0 4.38-1.31 5.39-3.37s.75-4.51-.66-6.32l-51.34-65.92c-1.14-1.46-2.88-2.31-4.73-2.31s-3.6.85-4.73 2.31l-51.34 65.92c-1.41 1.81-1.66 4.26-.66 6.32s3.1 3.37 5.39 3.37h25.01v105.86c0 3.31 2.69 6 6 6h40.67c3.3 0 5.99-2.69 5.99-6zm-12-111.86v105.86h-28.67v-105.86c0-3.31-2.69-6-6-6h-18.73l39.06-50.16 39.06 50.16h-18.73c-3.3 0-5.99 2.68-5.99 6zm100.88-44.88h25.01v82.35c0 3.31 2.69 6 6 6h40.67c3.31 0 6-2.69 6-6v-82.35h25c2.29 0 4.38-1.31 5.39-3.37s.75-4.51-.66-6.32l-51.34-65.92c-1.13-1.46-2.88-2.31-4.73-2.31s-3.6.85-4.73 2.31l-51.34 65.92c-1.41 1.81-1.66 4.26-.66 6.32s3.1 3.37 5.39 3.37zm51.34-62.15 39.06 50.16h-18.73c-3.31 0-6 2.69-6 6v82.35h-28.67v-82.36c0-3.31-2.69-6-6-6h-18.73z"/></svg>