<svg id="Layer_1" enable-background="new 0 0 66 66" height="512" viewBox="0 0 66 66" width="512" xmlns="http://www.w3.org/2000/svg"><g style="fill:none;stroke:#f1a31b;stroke-width:2;stroke-linecap:round;stroke-linejoin:round;stroke-miterlimit:10"><path d="m43.9 64 11.3-11.3h-7.7c-2 0-3.7 1.6-3.7 3.7v7.6z"/><path d="m9.1 34.3v25.7c0 2.2 1.8 4 4 4h30.6"/><path d="m55.3 9v-3c0-2.2-1.8-4-4-4h-38.2c-2.2 0-4 1.8-4 4v16.9"/><path d="m55.3 52.7v-25.3"/><g><path d="m22.1 42.4-4.8 3.3 5.6 3z"/><path d="m17.3 45.7 4.8-3.3-14.7-21.4c-2.2.2-3.8 1.3-4.8 3.3z"/><path d="m9.4 23.9-4.8 3.3-1.7 1.1c-.8.5-1 1.6-.4 2.3l2.5 3.7"/></g><ellipse cx="54.8" cy="18" rx="9" ry="9" transform="matrix(.383 -.924 .924 .383 17.216 61.739)"/><g><path d="m52.1 15.1c0-1.7 1.5-3 3.2-2.6 1 .2 1.8 1 2 2 .3 1.4-.5 2.6-1.6 3.1-.6.2-1 .8-1 1.4v1"/><path d="m54.8 22.9v.7"/></g><g><g><path d="m26 29h12.5"/><path d="m40.9 16.5c0-5.1-4.5-9.2-9.7-8.7-3.9.4-7 3.5-7.6 7.3-.4 2.9.6 5.6 2.4 7.4 1.7 1.7 2.7 3.9 2.7 6.3v.2h7.1v-.1c0-2.4 1-4.6 2.7-6.3 1.5-1.6 2.4-3.7 2.4-6.1z"/><path d="m32.2 28.7v-8.1l2-2"/><path d="m30.2 18.6 2 2"/></g><g><path d="m23.5 35.6h24"/><path d="m27 41.2h20.5"/><path d="m28 46.9h19.5"/><path d="m17 52.5h22.4"/><path d="m17 58.2h20.9"/></g></g></g></svg>