<svg id="Layer_2" viewBox="0 0 64 64" xmlns="http://www.w3.org/2000/svg" data-name="Layer 2"><g><g><path fill="#b2c2f2" d="m27.043 33.818c-.064 0-.129-.006-.193-.019-.329-.065-.604-.29-.731-.6l-4.043-9.818c-.154-.375-.067-.805.22-1.091.288-.285.72-.368 1.092-.212l9.713 4.087c.306.129.528.401.593.727.064.326-.037.662-.27.898l-5.67 5.731c-.189.192-.446.297-.711.297zm-2.194-8.956 2.544 6.18 3.569-3.607-6.113-2.572z"/><g><path fill="#b2c2f2" d="m57.33 64c-.265 0-.519-.105-.706-.292l-30.287-30.182c-.39-.389-.392-1.02-.005-1.412l5.67-5.731c.188-.189.44-.281.711-.297.265 0 .519.105.706.292l30.287 30.182c.39.389.392 1.02.005 1.412l-5.67 5.731c-.187.189-.441.296-.708.297zm-28.875-31.187 28.871 28.77 4.263-4.31-28.871-28.77z"/><path fill="#b2c2f2" d="m52.312 58.739c-.254 0-.508-.096-.703-.289-.393-.389-.396-1.021-.008-1.414l5.054-5.108c.389-.393 1.021-.396 1.414-.008s.396 1.021.008 1.414l-5.054 5.108c-.196.198-.453.297-.711.297z"/></g></g><g><path fill="#b2c2f2" d="m45 64h-44c-.552 0-1-.448-1-1v-62c0-.552.448-1 1-1h32c.265 0 .52.105.707.293l12 12c.188.188.293.442.293.707v26.34c0 .552-.448 1-1 1s-1-.448-1-1v-25.926l-11.414-11.414h-30.586v60h42v-11.29c0-.552.448-1 1-1s1 .448 1 1v12.29c0 .552-.448 1-1 1z"/><path fill="#b2c2f2" d="m32.903 14c-.552 0-1-.448-1-1v-11c0-.552.448-1 1-1s1 .448 1 1v11c0 .552-.448 1-1 1z"/><path fill="#b2c2f2" d="m45 14h-12c-.552 0-1-.448-1-1s.448-1 1-1h12c.552 0 1 .448 1 1s-.448 1-1 1z"/></g><path fill="#b2c2f2" d="m13 21h-6c-.552 0-1-.448-1-1v-6c0-.552.448-1 1-1h6c.552 0 1 .448 1 1v6c0 .552-.448 1-1 1zm-5-2h4v-4h-4z"/><path fill="#b2c2f2" d="m28 16h-11c-.552 0-1-.448-1-1s.448-1 1-1h11c.552 0 1 .448 1 1s-.448 1-1 1z"/><path fill="#b2c2f2" d="m37 20h-20c-.552 0-1-.448-1-1s.448-1 1-1h20c.552 0 1 .448 1 1s-.448 1-1 1z"/><path fill="#b2c2f2" d="m13 33h-6c-.552 0-1-.448-1-1v-6c0-.552.448-1 1-1h6c.552 0 1 .448 1 1v6c0 .552-.448 1-1 1zm-5-2h4v-4h-4z"/><path fill="#b2c2f2" d="m24.65 28h-7.65c-.552 0-1-.448-1-1s.448-1 1-1h7.65c.552 0 1 .448 1 1s-.448 1-1 1z"/><path fill="#b2c2f2" d="m26.29 32h-9.29c-.552 0-1-.448-1-1s.448-1 1-1h9.29c.552 0 1 .448 1 1s-.448 1-1 1z"/><path fill="#b2c2f2" d="m13 45h-6c-.552 0-1-.448-1-1v-6c0-.552.448-1 1-1h6c.552 0 1 .448 1 1v6c0 .552-.448 1-1 1zm-5-2h4v-4h-4z"/><path fill="#b2c2f2" d="m33.24 40h-16.24c-.552 0-1-.448-1-1s.448-1 1-1h16.24c.552 0 1 .448 1 1s-.448 1-1 1z"/><path fill="#b2c2f2" d="m37 44h-20c-.552 0-1-.448-1-1s.448-1 1-1h20c.552 0 1 .448 1 1s-.448 1-1 1z"/><path fill="#b2c2f2" d="m13 57h-6c-.552 0-1-.448-1-1v-6c0-.552.448-1 1-1h6c.552 0 1 .448 1 1v6c0 .552-.448 1-1 1zm-5-2h4v-4h-4z"/><path fill="#b2c2f2" d="m37 52h-20c-.552 0-1-.448-1-1s.448-1 1-1h20c.552 0 1 .448 1 1s-.448 1-1 1z"/><path fill="#b2c2f2" d="m37 56h-20c-.552 0-1-.448-1-1s.448-1 1-1h20c.552 0 1 .448 1 1s-.448 1-1 1z"/></g></svg>