<svg id="Layer_1" enable-background="new 0 0 512 512" viewBox="0 0 512 512" xmlns="http://www.w3.org/2000/svg"><path fill="#028b9c" clip-rule="evenodd" d="m462.401 354.791c-2.475-10.4-6.597-20.335-12.203-29.437l8.491-19.117-22.539-22.538-19.123 8.493c-9.102-5.604-19.032-9.726-29.43-12.2l-7.511-19.515h-31.874l-7.512 19.515c-10.397 2.474-20.328 6.596-29.429 12.2l-19.124-8.493-22.539 22.539 8.493 19.121c-5.604 9.101-9.727 19.033-12.202 29.432l-19.513 7.511v31.875l19.511 7.51c2.475 10.4 6.596 20.335 12.203 29.437l-8.491 19.117 22.539 22.539 19.124-8.493c9.101 5.604 19.031 9.726 29.429 12.201l7.511 19.512h31.875l7.51-19.511c10.4-2.474 20.334-6.596 29.437-12.203l19.118 8.491 22.539-22.539-8.493-19.123c5.604-9.101 9.726-19.031 12.2-29.429l19.515-7.512v-31.874zm-98.252 79.035c-30.703 0-55.588-24.885-55.588-55.588s24.885-55.589 55.588-55.589c30.704 0 55.589 24.885 55.589 55.589 0 30.703-24.885 55.588-55.589 55.588zm-65.134-417.099v47.076c0 2.309 1.883 4.193 4.193 4.193h47.076c-.406-.89-.983-1.71-1.729-2.456l-47.083-47.083c-.746-.747-1.566-1.323-2.457-1.73zm-123.701 50.888c-2.667-6.353-7.489-10.313-12.946-12.22-.08-4.349-3.63-7.85-7.998-7.85-4.4 0-7.971 3.554-7.999 7.948-8.085 2.891-13.648 9.894-13.218 18.752.552 11.385 9.889 16.519 19.978 18.175 2.121.348 7.675 1.282 8.007 4.018.033.27.045.247.046.308.037 1.59-3.965 2.388-5.084 2.524-.604.073-1.042.113-1.315.119-2.896.069-6.659-1.009-7.451-4.186-1.053-4.28-5.376-6.896-9.656-5.844-4.28 1.053-6.896 5.376-5.844 9.656 1.858 7.451 7.352 12.77 14.538 15.069.11 4.322 3.649 7.792 7.997 7.792 4.29 0 7.791-3.378 7.991-7.618 8.41-2.406 14.982-8.577 14.761-17.888-.018-.748-.054-1.355-.109-1.808-1.403-11.555-11.008-16.2-21.319-17.893-1.51-.248-6.505-1.129-6.603-3.175-.096-1.983 2.091-2.969 3.731-3.3 3.133-.631 6.438.501 7.743 3.608 1.709 4.073 6.396 5.99 10.469 4.281 4.073-1.708 5.99-6.395 4.281-10.468zm127.894 16.38c-11.14 0-20.192-9.052-20.192-20.192v-47.803h-244.541c-4.619 0-8.386 3.767-8.386 8.386v399.172c0 4.619 3.767 8.386 8.386 8.386h221.723c-3.025-5.847-5.551-11.942-7.548-18.215l-22.262-8.568v-10.985h-17.091c-3.305 0-6-2.695-6-6 0-39.029 0-57.447 0-96.476 0-3.305 2.695-6.001 6-6.001h27.09c3.305 0 6 2.695 6 6v53.458l6.265-2.411c2-6.283 4.532-12.387 7.563-18.242l-9.688-21.812 29.352-29.352v-49.21c0-3.305 2.695-6 6-6h27.09c3.305 0 6 2.695 6 6v46.177c3.174-1.33 6.406-2.519 9.687-3.564l8.571-22.266h13.783v-160.482zm-148.838-45.375c25.455 0 46.09 20.635 46.09 46.09s-20.636 46.09-46.09 46.09c-25.455 0-46.09-20.635-46.09-46.09 0-25.454 20.635-46.09 46.09-46.09zm-50.21 109.77h106.204c4.418 0 8 3.582 8 8s-3.582 8-8 8h-106.204c-4.418 0-8-3.582-8-8s3.582-8 8-8zm0 37.882h106.204c4.418 0 8 3.582 8 8s-3.582 8-8 8h-106.204c-4.418 0-8-3.582-8-8s3.582-8 8-8zm-42.031-37.882h13.648c4.418 0 8 3.582 8 8s-3.582 8-8 8h-13.648c-4.418 0-8-3.582-8-8s3.582-8 8-8zm-8 45.882c0-4.418 3.582-8 8-8h13.648c4.418 0 8 3.582 8 8s-3.582 8-8 8h-13.648c-4.418 0-8-3.582-8-8zm47.09 193.903c0 3.305-2.695 6-6 6h-27.09c-3.305 0-6-2.695-6-6v-64.371c0-3.305 2.695-6 6-6h27.09c3.305 0 6 2.695 6 6zm72.584 0c0 3.305-2.695 6-6 6h-27.09c-3.305 0-6-2.695-6-6v-112.769c0-3.305 2.695-6 6-6h27.09c3.305 0 6 2.695 6 6zm133.505-215.704-2.581 23.086c-.483 4.384-4.429 7.546-8.812 7.063-4.384-.483-7.545-4.429-7.062-8.813l.089-.793-56.442 56.924c-2.046 2.054-5.144 2.916-8.094 1.969l-68.59-22.23-69.236 53.909c-3.469 2.709-8.478 2.094-11.188-1.375-2.709-3.469-2.094-8.478 1.375-11.188l72.584-56.518c2.159-1.687 4.916-2.085 7.342-1.308l67.938 22.014 53.771-54.23-1.918.168c-4.4.38-8.276-2.881-8.656-7.281-.38-4.401 2.88-8.277 7.281-8.656l23.628-2.072c5.22-.449 9.45 4.232 8.571 9.331z" fill-rule="evenodd"/></svg>