<svg xmlns="http://www.w3.org/2000/svg" width="27.713" height="28.519" viewBox="0 0 27.713 28.519">
  <g id="Google__G__Logo" transform="translate(1184.577 765.171)">
    <path id="Path_384" data-name="Path 384" d="M-1089.33-687.239v5.522h7.61a6.578,6.578,0,0,1-2.841,4.291l4.589,3.591a13.99,13.99,0,0,0,4.216-10.487,16.505,16.505,0,0,0-.257-2.917Z" transform="translate(-81.108 -66.265)" fill="#4285f4"/>
    <path id="Path_385" data-name="Path 385" d="M-1169.662-651.791l-1.035.8-3.664,2.878h0a14.126,14.126,0,0,0,12.622,7.868,13.43,13.43,0,0,0,9.358-3.448l-4.589-3.591a8.372,8.372,0,0,1-4.769,1.374,8.45,8.45,0,0,1-7.918-5.872Z" transform="translate(-8.7 -96.407)" fill="#34a853"/>
    <path id="Path_386" data-name="Path 386" d="M-1183.06-712.61a14.18,14.18,0,0,0-1.517,6.391,14.181,14.181,0,0,0,1.517,6.391c0,.013,4.7-3.682,4.7-3.682a8.612,8.612,0,0,1-.45-2.709,8.612,8.612,0,0,1,.45-2.709Z" transform="translate(0 -44.693)" fill="#fbbc05"/>
    <path id="Path_387" data-name="Path 387" d="M-1161.739-759.493a7.68,7.68,0,0,1,5.412,2.126l4.049-4.083a13.5,13.5,0,0,0-9.46-3.72,14.1,14.1,0,0,0-12.623,7.868l4.7,3.682A8.449,8.449,0,0,1-1161.739-759.493Z" transform="translate(-8.699 0)" fill="#ea4335"/>
  </g>
</svg>
