<?xml version="1.0" encoding="UTF-8"?>
<svg xmlns="http://www.w3.org/2000/svg" viewBox="0 0 64 64" width="512" height="512" fill="#f1a31b"><path d="M59,53V25a4.00427,4.00427,0,0,0-4-4H51a4.00427,4.00427,0,0,0-4,4V53H45V44a4.00427,4.00427,0,0,0-4-4H37a4.00427,4.00427,0,0,0-4,4v9H31V41a4.00427,4.00427,0,0,0-4-4H23a4.00427,4.00427,0,0,0-4,4V53H17V52a4.00427,4.00427,0,0,0-4-4H9a4.00427,4.00427,0,0,0-4,4v1a3.0002,3.0002,0,0,0,.00012,6H59A3.0002,3.0002,0,0,0,59,53ZM49,25a2.00229,2.00229,0,0,1,2-2h4a2.00229,2.00229,0,0,1,2,2V53H49ZM35,44a2.00229,2.00229,0,0,1,2-2h4a2.00229,2.00229,0,0,1,2,2v9H35ZM21,41a2.00229,2.00229,0,0,1,2-2h4a2.00229,2.00229,0,0,1,2,2V53H21ZM7,52a2.00229,2.00229,0,0,1,2-2h4a2.00229,2.00229,0,0,1,2,2v1H7Zm52,5H5a1.00013,1.00013,0,0,1,.00006-2H59A1.00013,1.00013,0,0,1,59,57Z"/><path d="M11,44a4.01723,4.01723,0,0,0,3.66077-5.60059l7.923-6.233a3.99613,3.99613,0,0,0,5.97583-1.3797l6.45728,1.38056a3.9873,3.9873,0,1,0,7.07519-2.67347l9.41626-12.78869a4.00327,4.00327,0,1,0-1.60046-1.19885L40.49164,28.29492a3.99906,3.99906,0,0,0-5.05127,1.9184l-6.45728-1.38056a3.99259,3.99259,0,1,0-7.64386,1.76783l-7.923,6.233A3.99289,3.99289,0,1,0,11,44ZM53,11a2.00013,2.00013,0,0,1-.00006,4A2.00013,2.00013,0,0,1,53,11ZM37.04175,31.59418A2.0029,2.0029,0,0,1,41,32.00006,2.0029,2.0029,0,1,1,37.04175,31.59418ZM25,27a2.00013,2.00013,0,0,1-.00006,4A2.00013,2.00013,0,0,1,25,27ZM11,38a2.00013,2.00013,0,0,1-.00006,4A2.00013,2.00013,0,0,1,11,38Z"/><path d="M53,8a.99974.99974,0,0,0,1-1V6a1,1,0,0,0-2,0V7A.99974.99974,0,0,0,53,8Z"/><path d="M55.5,8.66992a1.00179,1.00179,0,0,0,1.36621-.36621l.5-.86621a1.00016,1.00016,0,1,0-1.73242-1l-.5.86621A1.00073,1.00073,0,0,0,55.5,8.66992Z"/><path d="M57.33057,10.5a1.00061,1.00061,0,0,0,1.36572.36621l.86572-.5a1.00016,1.00016,0,0,0-1-1.73242l-.86572.5A.99972.99972,0,0,0,57.33057,10.5Z"/></svg>
