<svg xmlns="http://www.w3.org/2000/svg" width="16.001" height="15.998" viewBox="0 0 16.001 15.998">
  <path id="Subtraction_1" data-name="Subtraction 1" d="M-10929-480h-6a5,5,0,0,1-5-5v-6a5,5,0,0,1,5-5h6a5.006,5.006,0,0,1,5,5v6A5.006,5.006,0,0,1-10929-480Zm-2.855-5.626a.845.845,0,0,0-.881.846.851.851,0,0,0,.881.859.845.845,0,0,0,.868-.859A.838.838,0,0,0-10931.854-485.627Zm-.241-4.994c.835,0,1.375.405,1.375,1.032,0,.5-.381.838-.784,1.2a2.406,2.406,0,0,0-1.053,1.837h1.4a1.83,1.83,0,0,1,.828-1.34,2.441,2.441,0,0,0,1.055-1.916c0-1.235-1.033-2-2.7-2a3.526,3.526,0,0,0-2.982,1.343l1.068.692A2.07,2.07,0,0,1-10932.1-490.621Z" transform="translate(10940 496)" fill="#f1a31b"/>
</svg>
