<svg id="Layer_1" enable-background="new 0 0 512 512" viewBox="0 0 512 512" xmlns="http://www.w3.org/2000/svg"><path  fill="#f1a31b" d="m341.768 256.385h74.234c4.418 0 8-3.582 8-8v-37.833c0-4.418-3.582-8-8-8h-74.234c-4.418 0-8 3.582-8 8v37.833c0 4.418 3.582 8 8 8zm8-37.833h58.234v21.833h-58.234zm-134.144-21.707h70.087c4.418 0 8-3.582 8-8v-70.087c0-4.418-3.582-8-8-8h-70.087c-4.418 0-8 3.582-8 8v70.087c0 4.418 3.582 8 8 8zm8-70.087h54.087v54.087h-54.087zm70.085 93.032c0 4.418-3.582 8-8 8h-70.085c-4.418 0-8-3.582-8-8s3.582-8 8-8h70.085c4.418 0 8 3.582 8 8zm171.718 48.381h-16.912v-101.796c0-4.418-3.582-8-8-8h-35.45v-93.1h2.193c4.418 0 8-3.582 8-8s-3.582-8-8-8h-56.747c-4.418 0-8 3.582-8 8s3.582 8 8 8h2.193v93.1h-27.449v-71.161c0-4.418-3.582-8-8-8h-19.434v-21.939c0-4.418-3.582-8-8-8h-78.31c-4.418 0-8 3.582-8 8v21.938h-19.434c-4.418 0-8 3.582-8 8v54.25l-60.08-26.219c-2.476-1.08-5.325-.839-7.582.639-2.258 1.479-3.618 3.995-3.618 6.693v35.799h-43.98c-4.418 0-8 3.582-8 8v101.796h-16.911c-4.418 0-8 3.582-8 8v29.064c0 3.31 2.038 6.277 5.126 7.466l31.701 12.202c4.43 16.938 11.145 33.138 20.008 48.265l-13.797 31.062c-1.343 3.024-.686 6.563 1.654 8.904l41.104 41.104c2.341 2.34 5.88 2.996 8.904 1.654l31.074-13.801c15.132 8.863 31.328 15.578 48.251 20.004l12.205 31.709c1.188 3.088 4.156 5.126 7.466 5.126h58.129c3.31 0 6.277-2.038 7.466-5.126l12.202-31.7c16.936-4.428 33.135-11.144 48.265-20.009l31.063 13.797c3.024 1.343 6.562.686 8.904-1.655l41.103-41.103c2.34-2.341 2.997-5.88 1.654-8.904l-13.801-31.074c8.863-15.131 15.577-31.326 20.004-48.251l31.709-12.205c3.088-1.188 5.126-4.156 5.126-7.466v-29.063c.001-4.418-3.581-8-7.999-8zm-96.722-160.951h20.36v9.212h-20.36zm20.36-41.945v25.945h-20.36v-25.945zm-20.36 67.157h20.36v25.943h-20.36zm63.81 41.943v93.796h-107.26v-93.796zm-102.434 109.796c-4.026 40.268-38.103 71.815-79.414 71.815-41.31 0-75.387-31.547-79.413-71.815zm-110.569-218.896h62.31v13.938h-62.31zm89.743 29.939v172.957h-117.176v-172.957zm-133.176 63.707v109.25h-55.28v-133.375zm-107.261 15.454h35.98v93.796h-35.98zm388.609 125.366-30.463 11.726c-2.462.947-4.298 3.048-4.908 5.613-4.316 18.137-11.476 35.406-21.279 51.328-1.383 2.246-1.569 5.03-.499 7.441l13.259 29.855-33.334 33.335-29.845-13.255c-2.409-1.07-5.194-.884-7.442.5-15.919 9.805-33.192 16.965-51.34 21.283-2.566.61-4.667 2.446-5.614 4.908l-11.723 30.454h-47.143l-11.726-30.463c-.947-2.462-3.048-4.298-5.613-4.908-18.135-4.316-35.404-11.476-51.328-21.279-2.248-1.384-5.032-1.57-7.441-.499l-29.855 13.259-33.336-33.335 13.256-29.844c1.07-2.411.884-5.195-.5-7.442-9.802-15.915-16.963-33.188-21.283-51.341-.61-2.565-2.447-4.666-4.908-5.613l-30.455-11.723v-15.571h111.283c4.079 49.104 45.34 87.815 95.478 87.815 50.139 0 91.4-38.712 95.479-87.815h111.282v15.571zm44.153-250.486-25.112-31.895c-2.146-2.727-5.369-4.291-8.84-4.291s-6.693 1.564-8.84 4.291l-25.113 31.897c-2.689 3.417-3.181 7.968-1.282 11.876 1.897 3.907 5.776 6.334 10.125 6.334h2.427v52.582c0 4.418 3.582 8 8 8h29.367c4.418 0 8-3.582 8-8v-52.581h2.428c4.348 0 8.228-2.428 10.125-6.336s1.405-8.459-1.285-11.877zm-19.268 2.213c-4.418 0-8 3.582-8 8v52.582h-13.367v-52.583c0-2.122-.843-4.157-2.344-5.657-1.5-1.5-3.535-2.343-5.657-2.343h-.645l15.329-19.47 15.33 19.471zm-423.257 76.582c4.418 0 8-3.582 8-8v-52.582h2.428c4.349 0 8.229-2.429 10.126-6.338 1.897-3.908 1.404-8.459-1.286-11.875l-25.112-31.895c-2.146-2.727-5.369-4.291-8.84-4.291s-6.693 1.564-8.84 4.291l-25.113 31.898c-2.689 3.417-3.181 7.968-1.282 11.876 1.897 3.907 5.776 6.334 10.125 6.334h2.428v52.582c0 4.418 3.582 8 8 8zm-30.013-76.583 15.329-19.47 15.33 19.471h-.646c-4.418 0-8 3.582-8 8v52.582h-13.366v-52.583c0-2.122-.843-4.157-2.344-5.657-1.5-1.5-3.535-2.343-5.657-2.343z"/></svg>