<svg xmlns="http://www.w3.org/2000/svg" width="86" height="86" viewBox="0 0 86 86">
  <g id="Group_292" data-name="Group 292" transform="translate(-34 -3)">
    <rect id="Rectangle_154" data-name="Rectangle 154" width="86" height="86" rx="15" transform="translate(34 3)" fill="#e6ac56" opacity="0.1"/>
    <g id="Group_139" data-name="Group 139" transform="translate(1466.797 -927.901)">
      <path id="Path_212" data-name="Path 212" d="M-1359.525,1053.35a.834.834,0,0,1-.394-.1.836.836,0,0,1-.441-.737v-7.028a4.236,4.236,0,0,1,4.231-4.231h12.241a.835.835,0,0,1,.8.593.835.835,0,0,1-.336.938l-15.637,10.424A.833.833,0,0,1-1359.525,1053.35Zm3.4-10.424a2.563,2.563,0,0,0-2.56,2.56v5.467l12.042-8.028Z" transform="translate(-31.565 -54.901)" fill="#e6ac56"/>
      <path id="Path_213" data-name="Path 213" d="M-1371.775,969H-1394.1a.835.835,0,0,1-.835-.835v-3.61a.835.835,0,0,1,.835-.835h22.321a.836.836,0,0,1,.835.835v3.61A.836.836,0,0,1-1371.775,969Zm-21.486-1.671h20.65v-1.939h-20.65Z" transform="translate(-10.688 -8.079)" fill="#e6ac56"/>
      <path id="Path_214" data-name="Path 214" d="M-1315.77,979.791a.836.836,0,0,1-.591-.245l-3.468-3.468a.835.835,0,0,1,0-1.181l2.194-2.194a.835.835,0,0,1,1.181,0l3.469,3.468a.835.835,0,0,1,0,1.181l-2.194,2.194A.835.835,0,0,1-1315.77,979.791Zm-2.287-4.3,2.287,2.287,1.013-1.013-2.287-2.286Z" transform="translate(-55.894 -13.355)" fill="#e6ac56"/>
      <path id="Path_215" data-name="Path 215" d="M-1310.007,975.256a.834.834,0,0,1-.591-.245l-2.614-2.614a.835.835,0,0,1,0-1.182l1.223-1.222a2.41,2.41,0,0,1,1.853-.7,2.765,2.765,0,0,1,1.823.82,2.765,2.765,0,0,1,.82,1.823,2.422,2.422,0,0,1-.7,1.853l-1.222,1.223A.833.833,0,0,1-1310.007,975.256Zm-1.432-3.449,1.432,1.432.632-.632a.773.773,0,0,0,.214-.593,1.1,1.1,0,0,0-.332-.721,1.1,1.1,0,0,0-.721-.333.762.762,0,0,0-.593.214Z" transform="translate(-59.89 -11.441)" fill="#e6ac56"/>
      <path id="Path_216" data-name="Path 216" d="M-1381.415,1042.888a.834.834,0,0,1-.59-.245.835.835,0,0,1-.206-.841l1.591-5.06a.835.835,0,0,1,.6-.561.835.835,0,0,1,.789.221l3.469,3.469a.834.834,0,0,1,.221.789.835.835,0,0,1-.561.6l-5.06,1.591A.837.837,0,0,1-1381.415,1042.888Zm1.975-4.33-.7,2.217,2.217-.7Z" transform="translate(-18.346 -51.822)" fill="#e6ac56"/>
      <path id="Path_217" data-name="Path 217" d="M-1391.09,1026.214H-1408.4a4.236,4.236,0,0,1-4.231-4.231v-1.66a.836.836,0,0,1,.836-.835.836.836,0,0,1,.835.835v1.66a2.563,2.563,0,0,0,2.56,2.56h17.056l15.054-10.036V997.155a.835.835,0,0,1,.835-.835.835.835,0,0,1,.835.835v17.8a.836.836,0,0,1-.372.7l-15.637,10.424A.836.836,0,0,1-1391.09,1026.214Z" transform="translate(0 -27.765)" fill="#e6ac56"/>
      <path id="Path_218" data-name="Path 218" d="M-1411.794,988.14a.836.836,0,0,1-.836-.835V954.574a4.236,4.236,0,0,1,4.231-4.231h29.55a4.236,4.236,0,0,1,4.231,4.231v3.708a.835.835,0,0,1-.835.835.835.835,0,0,1-.835-.835v-3.708a2.563,2.563,0,0,0-2.56-2.56h-29.55a2.563,2.563,0,0,0-2.56,2.56V987.3A.836.836,0,0,1-1411.794,988.14Z" fill="#e6ac56"/>
      <path id="Path_219" data-name="Path 219" d="M-1304.944,995.889a.835.835,0,0,1-.835-.835v-.583a.835.835,0,0,1,.835-.835.835.835,0,0,1,.836.835v.583A.835.835,0,0,1-1304.944,995.889Z" transform="translate(-64.526 -26.143)" fill="#e6ac56"/>
      <path id="Path_220" data-name="Path 220" d="M-1301.46,999.678h-.583a.835.835,0,0,1-.836-.835.835.835,0,0,1,.836-.835h.583a.835.835,0,0,1,.835.835A.835.835,0,0,1-1301.46,999.678Z" transform="translate(-66.277 -28.784)" fill="#e6ac56"/>
      <path id="Path_221" data-name="Path 221" d="M-1304.944,1003.16a.835.835,0,0,1-.835-.835v-.583a.835.835,0,0,1,.835-.835.835.835,0,0,1,.836.835v.583A.835.835,0,0,1-1304.944,1003.16Z" transform="translate(-64.526 -30.534)" fill="#e6ac56"/>
      <path id="Path_222" data-name="Path 222" d="M-1308.732,999.678h-.583a.835.835,0,0,1-.836-.835.835.835,0,0,1,.836-.835h.583a.835.835,0,0,1,.835.835A.835.835,0,0,1-1308.732,999.678Z" transform="translate(-61.886 -28.784)" fill="#e6ac56"/>
      <path id="Path_223" data-name="Path 223" d="M-1317.791,1052.3a.835.835,0,0,1-.835-.835v-.583a.835.835,0,0,1,.835-.835.835.835,0,0,1,.835.835v.583A.835.835,0,0,1-1317.791,1052.3Z" transform="translate(-56.768 -60.207)" fill="#e6ac56"/>
      <path id="Path_224" data-name="Path 224" d="M-1314.307,1056.084h-.583a.835.835,0,0,1-.835-.835.835.835,0,0,1,.835-.835h.583a.835.835,0,0,1,.835.835A.835.835,0,0,1-1314.307,1056.084Z" transform="translate(-58.519 -62.846)" fill="#e6ac56"/>
      <path id="Path_225" data-name="Path 225" d="M-1317.791,1059.567a.835.835,0,0,1-.835-.835v-.583a.835.835,0,0,1,.835-.835.835.835,0,0,1,.835.835v.583A.835.835,0,0,1-1317.791,1059.567Z" transform="translate(-56.768 -64.598)" fill="#e6ac56"/>
      <path id="Path_226" data-name="Path 226" d="M-1321.578,1056.084h-.583a.835.835,0,0,1-.835-.835.835.835,0,0,1,.835-.835h.583a.835.835,0,0,1,.835.835A.835.835,0,0,1-1321.578,1056.084Z" transform="translate(-54.128 -62.846)" fill="#e6ac56"/>
      <path id="Path_227" data-name="Path 227" d="M-1367.7,985.934h-6.781a.835.835,0,0,1-.836-.835.835.835,0,0,1,.836-.835h6.781a.835.835,0,0,1,.835.835A.835.835,0,0,1-1367.7,985.934Z" transform="translate(-22.533 -20.484)" fill="#e6ac56"/>
      <path id="Path_228" data-name="Path 228" d="M-1371.577,997.363H-1394.1a.835.835,0,0,1-.835-.835.835.835,0,0,1,.835-.835h22.519a.835.835,0,0,1,.835.835A.835.835,0,0,1-1371.577,997.363Z" transform="translate(-10.688 -27.386)" fill="#e6ac56"/>
      <path id="Path_229" data-name="Path 229" d="M-1375.98,1008.793H-1394.1a.835.835,0,0,1-.835-.835.835.835,0,0,1,.835-.835h18.116a.836.836,0,0,1,.835.835A.836.836,0,0,1-1375.98,1008.793Z" transform="translate(-10.688 -34.288)" fill="#e6ac56"/>
      <path id="Path_230" data-name="Path 230" d="M-1380.708,1020.222H-1394.1a.835.835,0,0,1-.835-.835.835.835,0,0,1,.835-.835h13.388a.835.835,0,0,1,.835.835A.835.835,0,0,1-1380.708,1020.222Z" transform="translate(-10.688 -41.19)" fill="#e6ac56"/>
      <path id="Path_231" data-name="Path 231" d="M-1385.228,1031.652h-8.868a.835.835,0,0,1-.835-.835.835.835,0,0,1,.835-.835h8.868a.836.836,0,0,1,.836.835A.836.836,0,0,1-1385.228,1031.652Z" transform="translate(-10.688 -48.092)" fill="#e6ac56"/>
      <path id="Path_232" data-name="Path 232" d="M-1373.93,1006.174a.833.833,0,0,1-.591-.245l-3.468-3.468a.835.835,0,0,1,0-1.181l23.038-23.038a.835.835,0,0,1,1.182,0l3.468,3.468a.835.835,0,0,1,0,1.181l-7.882,7.882a.835.835,0,0,1-1.181,0,.835.835,0,0,1,0-1.182l7.291-7.291-2.287-2.287-21.857,21.857,2.287,2.287,11.216-11.216a.836.836,0,0,1,1.181,0,.836.836,0,0,1,0,1.182l-11.807,11.807A.832.832,0,0,1-1373.93,1006.174Z" transform="translate(-20.771 -16.7)" fill="#e6ac56"/>
    </g>
  </g>
</svg>
