<?xml version="1.0" encoding="UTF-8"?>
<svg id="Layer_1" data-name="Layer 1" xmlns="http://www.w3.org/2000/svg" xmlns:xlink="http://www.w3.org/1999/xlink" viewBox="0 0 135.4961 39.5762">
  <defs>
    <style>
      .cls-1 {
        fill: #3f4557;
      }

      .cls-2 {
        fill: #b3dce1;
      }

      .cls-3 {
        fill: #028b9c;
      }

      .cls-4 {
        opacity: .8;
      }

      .cls-5 {
        fill: #f1a31b;
      }

      .cls-6 {
        clip-path: url(#clippath-1);
      }

      .cls-7 {
        fill: #35a2b0;
      }

      .cls-8 {
        fill: #67b9c4;
      }

      .cls-9 {
        clip-path: url(#clippath);
      }

      .cls-10 {
        fill: none;
      }
    </style>
    <clipPath id="clippath">
      <rect class="cls-10" y=".0023" width="135.4961" height="39.5739"/>
    </clipPath>
    <clipPath id="clippath-1">
      <path class="cls-10" d="m23.1067,20.1296c.3586,5.8575,5.209,10.5009,11.1569,10.5009s10.7982-4.6433,11.1569-10.5009h-22.3138Z"/>
    </clipPath>
  </defs>
  <g id="Group_288" data-name="Group 288">
    <g class="cls-9">
      <g>
        <g id="Group_290" data-name="Group 290">
          <path id="Path_37" data-name="Path 37" class="cls-1" d="m0,.5513h5.3108v10.3867c.9405-.8355,2.0048-1.5203,3.1549-2.0299,1.0142-.4419,2.1077-.6725,3.2139-.678,2.0113-.0422,3.9493.7549,5.3488,2.1999,1.339,1.5397,2.0091,3.5496,1.8619,5.5848v14.0876h-5.2708v-9.3477c.0653-1.6798-.0531-3.3617-.353-5.0159-.1693-.7704-.5939-1.4611-1.205-1.9599-.6102-.4454-1.3519-.6738-2.1069-.649-1.0359-.0179-2.0377.3696-2.7919,1.08-.8207.7962-1.3836,1.8203-1.616,2.9399-.211,1.4532-.2896,2.9225-.235,4.3899v8.5628H0V.5513Z"/>
          <path id="Path_38" data-name="Path 38" class="cls-1" d="m48.5006,8.781h4.5849v2.6849c.4248-.9707,1.1101-1.8048,1.9799-2.4099.7964-.5402,1.7376-.8271,2.6999-.823.7572.0163,1.5008.204,2.1749.549l-1.666,4.6059c-.4746-.2701-1.0034-.431-1.548-.471-.93.0709-1.739.6636-2.0869,1.529-.5687,1.0186-.853,3.0186-.853,5.9998l.02,1.039v8.6217h-5.3059V8.781h.0002Z"/>
          <path id="Path_39" data-name="Path 39" class="cls-1" d="m64.6781.0023c.9112-.0114,1.7857.3579,2.4129,1.019.6594.6505,1.0234,1.5428,1.007,2.4689.0148.9159-.3466,1.7979-1,2.4399-.6194.6537-1.4834,1.0194-2.3839,1.009-.9194.0134-1.8022-.3599-2.4329-1.029-.6612-.662-1.0243-1.5645-1.006-2.4999-.0133-.9068.3485-1.7789,1-2.4099C62.9029.35,63.7714-.0119,64.6751.0003m-2.6749,8.7797h5.3498v21.3214h-5.3498s0-21.3214,0-21.3214Z"/>
          <path id="Path_40" data-name="Path 40" class="cls-1" d="m71.3119,8.781h16.3235l-9.5787,16.7945h9.0307v4.5259h-17.2465l9.6227-16.7935h-8.1538l.002-4.5269h0Z"/>
          <path id="Path_41" data-name="Path 41" class="cls-1" d="m100.6861,8.2331c1.9911-.0053,3.9484.5152,5.6738,1.509,3.4938,1.9677,5.6493,5.6719,5.6338,9.6817.0079,1.9808-.5097,3.9283-1.5,5.6438-.9636,1.7144-2.3762,3.1339-4.0859,4.1059-1.7356.9886-3.7025,1.4989-5.6998,1.479-2.9492.0452-5.7846-1.1366-7.8288-3.2629-2.1249-2.084-3.2979-4.951-3.2429-7.9268-.0666-3.1809,1.2746-6.2289,3.6649-8.3288,2.0001-1.8775,4.6446-2.9155,7.3878-2.8999m.088,5.0369c-1.5676-.0402-3.0777.5907-4.1509,1.7339-1.1225,1.199-1.7197,2.7966-1.6589,4.4379-.0725,1.6601.517,3.2811,1.639,4.5069,1.0731,1.1423,2.5842,1.7703,4.1509,1.725,1.5783.0401,3.0989-.5942,4.1809-1.7439,1.1321-1.2138,1.7325-2.8294,1.668-4.4879.0688-1.6449-.5211-3.2493-1.639-4.4579-1.0892-1.1421-2.6135-1.7659-4.1909-1.715"/>
          <path id="Path_42" data-name="Path 42" class="cls-1" d="m116.3626,8.781h5.3508v2.1849c.9838-.8766,2.0968-1.5964,3.2999-2.1339.9589-.3951,1.9858-.5989,3.0229-.6,2.023-.0375,3.9713.7643,5.3818,2.2149,1.3399,1.5312,2.0099,3.5357,1.8599,5.5648v14.0896h-5.2908v-9.3367c.0681-1.697-.0468-3.3965-.343-5.0689-.1743-.7513-.5941-1.423-1.193-1.9089-.6058-.4496-1.346-.6808-2.0999-.656-1.0353-.0181-2.0361.372-2.7859,1.086-.8253.8163-1.3871,1.8612-1.613,2.9999-.2066,1.4321-.2849,2.8798-.234,4.3259v8.5538h-5.3558V8.781h0Z"/>
          <path id="Path_43" data-name="Path 43" class="cls-5" d="m45.3767,19.1627c-.007-.312-.029-.621-.061-.926-.018-.183-.048-.362-.076-.542-.013-.086-.021-.173-.036-.258-.021-.117-.038-.235-.063-.352,0-.013-.006-.025-.008-.038-.0447-.2093-.095-.4167-.151-.622v-.006c-.008-.032-.019-.062-.028-.094-.054-.189-.111-.377-.176-.563-.005-.015-.012-.03-.017-.045-.015-.043-.033-.086-.048-.129-.058-.159-.116-.318-.182-.474-.042-.1-.091-.2-.136-.3-.026-.057-.051-.114-.079-.171s-.05-.114-.078-.171c-.045-.091-.1-.179-.144-.269-.064-.122-.126-.246-.2-.367l-.027-.043c-.072-.123-.148-.24-.223-.359s-.146-.229-.222-.342-.147-.208-.222-.311-.147-.2-.223-.293-.147-.181-.222-.27-.147-.173-.223-.257-.147-.157-.222-.235-.146-.157-.222-.232-.149-.137-.223-.206-.146-.138-.222-.205-.148-.125-.222-.187-.148-.12-.223-.179-.146-.119-.222-.176-.149-.1-.223-.156-.147-.105-.222-.156-.147-.1-.222-.148-.148-.09-.223-.135-.147-.092-.222-.136c-.038-.022-.073-.046-.111-.069s-.075-.038-.111-.058c-.074-.041-.148-.078-.223-.117s-.148-.08-.222-.117-.148-.074-.223-.109-.148-.067-.222-.1-.148-.069-.222-.1-.148-.063-.223-.093-.148-.055-.222-.083-.148-.057-.222-.083-.148-.054-.223-.078-.148-.045-.222-.067-.148-.046-.223-.067-.148-.045-.222-.064-.148-.034-.222-.051l-.223-.052c-.074-.016-.148-.036-.222-.051s-.148-.024-.222-.037-.148-.024-.223-.036-.148-.026-.222-.036-.148-.018-.223-.026-.148-.014-.222-.021-.148-.015-.222-.021-.148-.012-.223-.016-.148,0-.222-.007-.148-.006-.222-.007-.147-.007-.222-.007h0c-.075,0-.148.008-.222.01s-.148.007-.222.01-.149.005-.223.01-.149,0-.222.01-.149.011-.223.018-.148.021-.222.03-.148.02-.222.03-.149.018-.223.03-.149.017-.222.03-.148.035-.222.05-.148.035-.223.052-.148.033-.222.052-.15.032-.223.052-.148.042-.222.064-.148.051-.222.075-.149.049-.223.076-.149.048-.222.075-.149.054-.222.083-.148.068-.223.1-.148.066-.222.1-.149.064-.223.1-.149.069-.222.106-.148.086-.222.126-.149.083-.223.126-.149.082-.222.126-.149.088-.222.135-.148.1-.223.154-.148.1-.222.154-.15.1-.223.154-.148.112-.222.169-.148.124-.222.185-.149.122-.223.185-.15.12-.222.185c-.014.013-.029.023-.043.036-.064.058-.117.121-.179.179-.077.073-.148.149-.223.223s-.151.147-.222.222-.15.143-.218.218c-.148.163-.278.335-.414.5l-.052.047c-.073.091-.153.179-.223.272-.017.023-.038.044-.054.066-.061.083-.11.17-.168.254-.041.058-.078.117-.117.176-.064.1-.134.195-.2.294-.042.069-.092.134-.133.2h0c-.17.288-.32.585-.46.886-.014.03-.032.059-.045.089-.1509.3298-.2844.6672-.4,1.011v.011c-.3548,1.0913-.5439,2.2296-.561,3.3769,0,.1-.014.2-.014.3s.011.2.013.3h22.3423c0-.112.011-.224.011-.336,0-.088-.007-.173-.008-.26m-5.5138,0h-11.4997c.0131-.4224.0623-.8429.147-1.257.0564-.2712.1306-.5385.222-.8.0648-.1877.1393-.3719.223-.552.068-.147.142-.29.222-.429.07-.122.143-.243.222-.36s.144-.21.223-.312.147-.175.222-.26c.056-.064.107-.129.166-.191.018-.019.038-.035.057-.054.072-.074.147-.142.222-.212s.147-.135.222-.2.148-.116.223-.173.147-.111.222-.163.148-.093.222-.138.147-.093.223-.134.148-.072.222-.107.147-.075.223-.107.148-.055.222-.083c.074-.028.147-.055.222-.079s.148-.046.223-.067.148-.037.222-.054.147-.039.222-.054.149-.02.223-.032.147-.023.222-.031.147-.018.223-.024.148-.007.222-.01.147-.009.222-.01h.089c.03,0,.088.005.134.006.075,0,.148.006.222.01s.15,0,.222.01.148.017.223.026.149.019.222.03.15.019.222.033.148.035.223.052.15.033.222.052.149.044.223.067.149.051.222.077.15.051.222.082.148.07.223.106.15.067.222.105.148.088.222.132.15.088.223.136.149.107.222.162.15.111.223.171.149.131.222.2.15.137.222.211c.017.017.035.032.052.049.061.064.114.132.171.2.076.087.153.173.222.264s.151.207.222.314.153.243.223.368c.0807.1433.1547.291.222.443.0843.1873.1588.3789.223.574.0938.2826.1679.5712.222.864.0695.3814.1103.7675.122,1.155l-.11-.006h-.0003Z"/>
        </g>
        <g>
          <path class="cls-5" d="m64.8974,39.4849c-.4049,0-.7775-.0665-1.1171-.1988s-.636-.321-.8884-.5659-.4482-.5296-.5884-.8546c-.1396-.3247-.2098-.6848-.2098-1.0796,0-.3945.0701-.7546.2098-1.0793.1402-.325.3372-.6098.5921-.8546s.5524-.4335.8921-.5662c.3402-.1323.7122-.1985,1.1171-.1985.4299,0,.822.0738,1.1768.221.3549.1476.6549.3662.9.6558l-.6299.5924c-.1951-.2049-.4098-.3585-.6445-.461-.2354-.1024-.4878-.1537-.7573-.1537-.275,0-.5262.0448-.7537.1348s-.4244.2174-.5921.3823-.2988.3598-.3933.5848c-.0951.225-.1427.4723-.1427.7421s.0476.5174.1427.7421c.0945.225.2256.4198.3933.5848s.3646.2924.5921.3823c.2275.0899.4787.1351.7537.1351.2695,0,.522-.0512.7573-.1537.2348-.1024.4494-.2585.6445-.4686l.6299.5924c-.2451.2896-.5451.5095-.9.6595s-.7494.225-1.1842.225h0Z"/>
          <path class="cls-5" d="m71.764,39.4849c-.4049,0-.7811-.0674-1.1281-.2024-.3476-.1351-.6488-.3247-.9037-.5698-.2549-.2448-.4518-.5308-.5921-.8582-.1396-.3271-.2098-.6832-.2098-1.0683,0-.3896.0701-.7482.2098-1.0756.1402-.3271.3372-.6122.5921-.8546s.5549-.4311.9-.5659c.3445-.1351.722-.2024,1.1317-.2024.4049,0,.7799.0662,1.1244.1985.3451.1326.6433.3198.8957.5622.2524.2427.4488.5287.5884.8585.1402.3299.2104.6896.2104,1.0793,0,.3899-.0701.7485-.2104,1.0759-.1396.3271-.336.6134-.5884.8582s-.5506.4335-.8957.5659c-.3445.1323-.7195.1988-1.1244.1988h0Zm0-.8547c.2646,0,.5085-.0451.7311-.1351.222-.0899.4159-.2174.5805-.3823.1652-.1649.2939-.3598.3866-.5848.0921-.2247.1384-.4723.1384-.7421s-.0451-.5171-.1348-.7421c-.0902-.225-.2189-.4198-.386-.5848-.1677-.1649-.3628-.2924-.5848-.3823-.2226-.0899-.4665-.1348-.7311-.1348s-.511.0448-.7384.1348-.4238.2189-.5884.3863-.2951.3622-.3896.5845c-.0951.2226-.1427.4686-.1427.7384,0,.2649.0476.5098.1427.7348.0945.225.225.421.3896.5884s.361.296.5884.386.4738.1351.7384.1351h.0001Z"/>
          <path class="cls-5" d="m77.1165,39.4099v-5.2473h.8018l3.2909,4.0479h-.397v-4.0479h.9592v5.2473h-.8018l-3.2836-4.0479h.3976v4.0479s-.9671,0-.9671,0Z"/>
          <path class="cls-5" d="m86.3142,39.4849c-.4098,0-.8006-.0588-1.1732-.1762-.372-.1174-.6707-.2686-.8957-.4534l.3378-.7573c.2098.1649.4695.3024.7793.4122.3098.1101.6274.1649.9518.1649.275,0,.4976-.0299.6677-.0899.1695-.0598.2945-.1412.3744-.2436s.1201-.2186.1201-.3485c0-.1598-.0573-.2887-.1726-.386-.1146-.0976-.2634-.175-.4457-.2326-.1829-.0573-.3854-.1098-.6073-.1573-.2226-.0476-.4451-.1061-.6671-.1762-.2226-.0698-.4262-.1585-.611-.2662-.1854-.1073-.3335-.2509-.4463-.4308-.1122-.1799-.1683-.4098-.1683-.6896,0-.2851.0762-.546.2287-.7835.1524-.2372.3848-.4271.697-.5698.3122-.1424.7085-.2134,1.1884-.2134.3146,0,.6268.0399.9366.1198s.5799.1948.8098.3448l-.3073.757c-.2348-.1396-.4774-.2436-.7275-.311-.2494-.0674-.4896-.1012-.7195-.1012-.2646,0-.4823.0326-.6518.0976-.1701.0649-.2939.1512-.3713.2585-.0774.1076-.1159.2262-.1159.3561,0,.1601.0561.2887.1683.386.1128.0976.2598.1738.4427.2287.1823.0552.386.1076.611.1576.2244.05.447.1085.6671.1759.2195.0677.422.1552.6067.2625.1854.1076.3342.25.4463.4271.1122.1774.1689.4037.1689.6787,0,.2799-.0762.5384-.2287.7756-.1531.2375-.3866.4274-.7012.5698s-.7122.2137-1.1921.2137h0Z"/>
          <path class="cls-5" d="m93.1515,39.4849c-.7146,0-1.2756-.2024-1.683-.6073-.4073-.4046-.611-.9918-.611-1.7616v-2.9534h.9744v2.9235c0,.5396.1165.932.3488,1.1768s.561.3674.9854.3674c.425,0,.7525-.1226.9823-.3674s.3445-.6372.3445-1.1768v-2.9235h.9598v2.9534c0,.7698-.2037,1.357-.611,1.7616-.4073.4049-.9707.6073-1.6903.6073h0Z"/>
          <path class="cls-5" d="m98.3162,39.4099v-5.2473h.9744v4.4226h2.7433v.8247h-3.7177Z"/>
          <path class="cls-5" d="m104.8828,39.4099v-4.4229h-1.7391v-.8244h4.4531v.8244h-1.7391v4.4229h-.975,0Z"/>
          <path class="cls-5" d="m108.8261,39.4099l2.361-5.2473h.9598l2.3689,5.2473h-1.0275l-2.0238-4.7303h.3896l-2.0311,4.7303h-.997,0Zm1.0866-1.2143l.2701-.7646h2.8263l.2622.7646h-3.3586Z"/>
          <path class="cls-5" d="m116.6824,39.4099v-5.2473h.8018l3.2909,4.0479h-.397v-4.0479h.9592v5.2473h-.8018l-3.2836-4.0479h.3976v4.0479s-.9671,0-.9671,0Z"/>
          <path class="cls-5" d="m126.6825,39.4849c-.4049,0-.7775-.0665-1.1171-.1988s-.636-.321-.8884-.5659-.4482-.5296-.5884-.8546c-.1396-.3247-.2098-.6848-.2098-1.0796,0-.3945.0701-.7546.2098-1.0793.1402-.325.3372-.6098.5921-.8546s.5524-.4335.8921-.5662c.3402-.1323.7122-.1985,1.1171-.1985.4299,0,.822.0738,1.1768.221.3549.1476.6549.3662.9.6558l-.6299.5924c-.1951-.2049-.4098-.3585-.6445-.461-.2354-.1024-.4878-.1537-.7573-.1537-.275,0-.5262.0448-.7537.1348s-.4244.2174-.5921.3823-.2988.3598-.3933.5848c-.0951.225-.1427.4723-.1427.7421s.0476.5174.1427.7421c.0945.225.2256.4198.3933.5848s.3646.2924.5921.3823.4787.1351.7537.1351c.2695,0,.522-.0512.7573-.1537.2348-.1024.4494-.2585.6445-.4686l.6299.5924c-.2451.2896-.5451.5095-.9.6595s-.7494.225-1.1842.225h0Z"/>
          <path class="cls-5" d="m132.4174,39.4099v-2.0766l.225.5924-2.2866-3.7632h1.0348l1.8439,3.036h-.5848l1.8366-3.036h.9598l-2.2787,3.7632.2171-.5924v2.0766h-.9671Z"/>
        </g>
      </g>
    </g>
  </g>
  <g class="cls-6">
    <g>
      <rect class="cls-3" x="22.8803" y="21.1181" width="23.3191" height="1.3589"/>
      <g class="cls-4">
        <rect class="cls-7" x="23.3954" y="23.8359" width="23.3191" height="1.3589"/>
      </g>
      <rect class="cls-8" x="23.3954" y="26.5538" width="23.3191" height="1.3589"/>
      <rect class="cls-2" x="23.3954" y="29.2716" width="23.3191" height="1.3589"/>
    </g>
  </g>
</svg>