<svg xmlns="http://www.w3.org/2000/svg" xmlns:xlink="http://www.w3.org/1999/xlink" width="135.5" height="39.575" viewBox="0 0 135.5 39.575">
  <defs>
    <clipPath id="clip-path">
      <rect id="Rectangle_151" data-name="Rectangle 151" width="135.5" height="39.575" fill="none"/>
    </clipPath>
  </defs>
  <g id="Group_288" data-name="Group 288" transform="translate(0 0)">
    <g id="Group_290" data-name="Group 290" transform="translate(0 0)" clip-path="url(#clip-path)">
      <path id="Path_26" data-name="Path 26" d="M120.08,63.122a2.668,2.668,0,0,1-.99-.18,2.315,2.315,0,0,1-1.307-1.272,2.586,2.586,0,0,1,0-1.926,2.311,2.311,0,0,1,.523-.767,2.375,2.375,0,0,1,.791-.505,2.676,2.676,0,0,1,.99-.179,2.715,2.715,0,0,1,.97.173,1.949,1.949,0,0,1,.766.519l-.318.319a1.777,1.777,0,0,0-.644-.431,2.154,2.154,0,0,0-.761-.132,2.115,2.115,0,0,0-.793.146,1.891,1.891,0,0,0-.638.414,1.94,1.94,0,0,0-.424.624,1.986,1.986,0,0,0,.424,2.191,1.891,1.891,0,0,0,.638.414,2.127,2.127,0,0,0,.793.146,2.1,2.1,0,0,0,.761-.136,1.809,1.809,0,0,0,.644-.434l.318.319a1.981,1.981,0,0,1-.766.522,2.683,2.683,0,0,1-.978.176" transform="translate(-47.504 -23.547)" fill="#f1a31b"/>
      <path id="Path_27" data-name="Path 27" d="M130.381,63.122a2.7,2.7,0,0,1-.994-.18,2.33,2.33,0,0,1-.793-.508,2.358,2.358,0,0,1-.523-.767,2.571,2.571,0,0,1,0-1.92,2.35,2.35,0,0,1,1.313-1.276,2.841,2.841,0,0,1,1.987,0,2.378,2.378,0,0,1,.79.505,2.322,2.322,0,0,1,.522.767,2.572,2.572,0,0,1,0,1.926,2.318,2.318,0,0,1-.522.767,2.368,2.368,0,0,1-.79.5,2.668,2.668,0,0,1-.99.18m0-.448a2.1,2.1,0,0,0,.79-.146,1.864,1.864,0,0,0,.631-.414,1.928,1.928,0,0,0,.417-.624,2.134,2.134,0,0,0,0-1.567,1.921,1.921,0,0,0-.417-.624,1.864,1.864,0,0,0-.631-.414,2.085,2.085,0,0,0-.79-.146,2.116,2.116,0,0,0-.794.146,1.9,1.9,0,0,0-1.058,1.038,2.125,2.125,0,0,0,0,1.563,1.887,1.887,0,0,0,1.058,1.041,2.128,2.128,0,0,0,.794.146" transform="translate(-51.66 -23.547)" fill="#f1a31b"/>
      <path id="Path_28" data-name="Path 28" d="M140.416,63.108V58.359h.413l3.276,4.125h-.217V58.359h.5v4.749h-.414L140.7,58.984h.217v4.124Z" transform="translate(-56.722 -23.574)" fill="#f1a31b"/>
      <path id="Path_29" data-name="Path 29" d="M152.946,63.122a2.992,2.992,0,0,1-1.014-.173,1.933,1.933,0,0,1-.749-.444l.2-.387a1.993,1.993,0,0,0,.675.411,2.425,2.425,0,0,0,.892.166,2.007,2.007,0,0,0,.73-.112.881.881,0,0,0,.413-.3.721.721,0,0,0,.133-.421.628.628,0,0,0-.16-.448,1.094,1.094,0,0,0-.417-.268,4.685,4.685,0,0,0-.57-.173q-.312-.074-.624-.159a2.651,2.651,0,0,1-.573-.227,1.188,1.188,0,0,1-.42-.377,1.068,1.068,0,0,1-.16-.614,1.193,1.193,0,0,1,.187-.648,1.3,1.3,0,0,1,.573-.475,2.367,2.367,0,0,1,.991-.179,2.891,2.891,0,0,1,.793.111,2.286,2.286,0,0,1,.678.309l-.17.4a2.228,2.228,0,0,0-.647-.3,2.477,2.477,0,0,0-.662-.095,1.851,1.851,0,0,0-.705.115.9.9,0,0,0-.411.309.758.758,0,0,0-.132.438.627.627,0,0,0,.159.448,1.065,1.065,0,0,0,.421.265,5.32,5.32,0,0,0,.573.17c.208.049.414.1.62.163a2.929,2.929,0,0,1,.57.227,1.183,1.183,0,0,1,.421.37,1.043,1.043,0,0,1,.159.6,1.16,1.16,0,0,1-.19.641,1.32,1.32,0,0,1-.579.474,2.4,2.4,0,0,1-1,.18" transform="translate(-61.07 -23.547)" fill="#f1a31b"/>
      <path id="Path_30" data-name="Path 30" d="M163.105,63.149a1.934,1.934,0,0,1-1.431-.522,2.1,2.1,0,0,1-.522-1.547V58.36h.5v2.7a1.746,1.746,0,0,0,.38,1.241,1.644,1.644,0,0,0,2.151,0,1.751,1.751,0,0,0,.38-1.241v-2.7h.489v2.72a2.108,2.108,0,0,1-.519,1.547,1.924,1.924,0,0,1-1.428.522" transform="translate(-65.098 -23.575)" fill="#f1a31b"/>
      <path id="Path_31" data-name="Path 31" d="M172.51,63.108V58.359h.5v4.314h2.659v.435Z" transform="translate(-69.686 -23.574)" fill="#f1a31b"/>
      <path id="Path_32" data-name="Path 32" d="M181.165,63.108V58.794H179.5v-.435h3.84v.435h-1.669v4.314Z" transform="translate(-72.508 -23.574)" fill="#f1a31b"/>
      <path id="Path_33" data-name="Path 33" d="M187.883,63.108l2.171-4.748h.495l2.171,4.748h-.529L190.2,58.651h.2l-1.994,4.457Zm.855-1.268.149-.407h2.761l.15.407Z" transform="translate(-75.896 -23.575)" fill="#f1a31b"/>
      <path id="Path_34" data-name="Path 34" d="M199.6,63.108V58.359h.413l3.276,4.125h-.217V58.359h.5v4.749h-.414l-3.269-4.124h.217v4.124Z" transform="translate(-80.627 -23.574)" fill="#f1a31b"/>
      <path id="Path_35" data-name="Path 35" d="M212.9,63.122a2.668,2.668,0,0,1-.99-.18A2.315,2.315,0,0,1,210.6,61.67a2.586,2.586,0,0,1,0-1.926,2.311,2.311,0,0,1,.523-.767,2.375,2.375,0,0,1,.791-.505,2.676,2.676,0,0,1,.99-.179,2.715,2.715,0,0,1,.97.173,1.949,1.949,0,0,1,.766.519l-.318.319a1.777,1.777,0,0,0-.644-.431,2.154,2.154,0,0,0-.761-.132,2.115,2.115,0,0,0-.793.146,1.892,1.892,0,0,0-.638.414,1.94,1.94,0,0,0-.424.624,1.986,1.986,0,0,0,.424,2.191,1.892,1.892,0,0,0,.638.414,2.127,2.127,0,0,0,.793.146,2.1,2.1,0,0,0,.761-.136,1.809,1.809,0,0,0,.644-.434l.318.319a1.981,1.981,0,0,1-.766.522,2.683,2.683,0,0,1-.978.176" transform="translate(-84.999 -23.547)" fill="#f1a31b"/>
      <path id="Path_36" data-name="Path 36" d="M222.026,63.108V61.344l.115.312-2.015-3.3h.536l1.771,2.9h-.285l1.77-2.9h.5l-2.015,3.3.115-.312v1.764Z" transform="translate(-88.921 -23.574)" fill="#f1a31b"/>
      <path id="Path_37" data-name="Path 37" d="M0,.921H5.311V11.308a12.181,12.181,0,0,1,3.155-2.03A8.147,8.147,0,0,1,11.68,8.6,7.235,7.235,0,0,1,17.029,10.8a7.668,7.668,0,0,1,1.862,5.585V30.473H13.62V21.125a23.09,23.09,0,0,0-.353-5.016,3.5,3.5,0,0,0-1.205-1.96A3.385,3.385,0,0,0,9.955,13.5,3.972,3.972,0,0,0,7.163,14.58a5.714,5.714,0,0,0-1.616,2.94,24.272,24.272,0,0,0-.235,4.39v8.563H0Z" transform="translate(0 -0.372)" fill="#5a627c"/>
      <path id="Path_38" data-name="Path 38" d="M81.373,14.357h4.585v2.685a5.738,5.738,0,0,1,1.98-2.41,4.773,4.773,0,0,1,2.7-.823,5.01,5.01,0,0,1,2.175.549l-1.666,4.606a3.673,3.673,0,0,0-1.548-.471,2.45,2.45,0,0,0-2.087,1.529q-.853,1.528-.853,6l.02,1.039v8.622H81.373Z" transform="translate(-32.871 -5.578)" fill="#5a627c"/>
      <path id="Path_39" data-name="Path 39" d="M106.211,0a3.27,3.27,0,0,1,2.413,1.019,3.384,3.384,0,0,1,1.007,2.469,3.345,3.345,0,0,1-1,2.44,3.233,3.233,0,0,1-2.384,1.009,3.278,3.278,0,0,1-2.433-1.029,3.442,3.442,0,0,1-1.006-2.5,3.288,3.288,0,0,1,1-2.41,3.274,3.274,0,0,1,2.4-1m-2.675,8.78h5.35V30.1h-5.35Z" transform="translate(-41.531 0)" fill="#5a627c"/>
      <path id="Path_40" data-name="Path 40" d="M118.648,14.729h16.324l-9.579,16.795h9.031v4.526H117.177L126.8,19.256h-8.154Z" transform="translate(-47.334 -5.95)" fill="#5a627c"/>
      <path id="Path_41" data-name="Path 41" d="M161.437,13.809a11.308,11.308,0,0,1,5.674,1.509A11.063,11.063,0,0,1,172.745,25a11.2,11.2,0,0,1-1.5,5.644,10.824,10.824,0,0,1-4.086,4.106,11.289,11.289,0,0,1-5.7,1.479,10.634,10.634,0,0,1-7.829-3.263,10.823,10.823,0,0,1-3.243-7.927,10.786,10.786,0,0,1,3.665-8.329,10.706,10.706,0,0,1,7.388-2.9m.088,5.037a5.5,5.5,0,0,0-4.151,1.734,6.16,6.16,0,0,0-1.659,4.438,6.27,6.27,0,0,0,1.639,4.507,5.478,5.478,0,0,0,4.151,1.725,5.548,5.548,0,0,0,4.181-1.744,6.225,6.225,0,0,0,1.668-4.488,6.185,6.185,0,0,0-1.639-4.458,5.544,5.544,0,0,0-4.191-1.715" transform="translate(-60.748 -5.578)" fill="#5a627c"/>
      <path id="Path_42" data-name="Path 42" d="M195.23,14.357h5.351v2.185a12.823,12.823,0,0,1,3.3-2.134,7.958,7.958,0,0,1,3.023-.6,7.318,7.318,0,0,1,5.382,2.215,7.6,7.6,0,0,1,1.86,5.565v14.09h-5.291V26.341a23.633,23.633,0,0,0-.343-5.069,3.468,3.468,0,0,0-1.193-1.909,3.339,3.339,0,0,0-2.1-.656,3.94,3.94,0,0,0-2.786,1.086,5.809,5.809,0,0,0-1.613,3,24.3,24.3,0,0,0-.234,4.326v8.554H195.23Z" transform="translate(-78.864 -5.578)" fill="#5a627c"/>
      <path id="Path_43" data-name="Path 43" d="M60.983,24.739c-.007-.312-.029-.621-.061-.926-.018-.183-.048-.362-.076-.542-.013-.086-.021-.173-.036-.258-.021-.117-.038-.235-.063-.352,0-.013-.006-.025-.008-.038q-.067-.314-.151-.622l0-.006c-.008-.032-.019-.062-.028-.094-.054-.189-.111-.377-.176-.563-.005-.015-.012-.03-.017-.045-.015-.043-.033-.086-.048-.129-.058-.159-.116-.318-.182-.474-.042-.1-.091-.2-.136-.3-.026-.057-.051-.114-.079-.171s-.05-.114-.078-.171c-.045-.091-.1-.179-.144-.269-.064-.122-.126-.246-.2-.367l-.027-.043c-.072-.123-.148-.24-.223-.359s-.146-.229-.222-.342-.147-.208-.222-.311-.147-.2-.223-.293-.147-.181-.222-.27-.147-.173-.223-.257-.147-.157-.222-.235-.146-.157-.222-.232-.149-.137-.223-.206-.146-.138-.222-.205-.148-.125-.222-.187-.148-.12-.223-.179-.146-.119-.222-.176-.149-.1-.223-.156-.147-.105-.222-.156-.147-.1-.222-.148-.148-.09-.223-.135-.147-.092-.222-.136c-.038-.022-.073-.046-.111-.069s-.075-.038-.111-.058c-.074-.041-.148-.078-.223-.117s-.148-.08-.222-.117-.148-.074-.223-.109-.148-.067-.222-.1-.148-.069-.222-.1-.148-.063-.223-.093-.148-.055-.222-.083-.148-.057-.222-.083-.148-.054-.223-.078-.148-.045-.222-.067-.148-.046-.223-.067-.148-.045-.222-.064-.148-.034-.222-.051l-.223-.052c-.074-.016-.148-.036-.222-.051s-.148-.024-.222-.037-.148-.024-.223-.036-.148-.026-.222-.036-.148-.018-.223-.026-.148-.014-.222-.021-.148-.015-.222-.021-.148-.012-.223-.016-.148,0-.222-.007-.148-.006-.222-.007-.147-.007-.222-.007h0c-.075,0-.148.008-.222.01s-.148.007-.222.01-.149.005-.223.01-.149,0-.222.01-.149.011-.223.018-.148.021-.222.03-.148.02-.222.03-.149.018-.223.03-.149.017-.222.03-.148.035-.222.05-.148.035-.223.052-.148.033-.222.052-.15.032-.223.052-.148.042-.222.064-.148.051-.222.075-.149.049-.223.076-.149.048-.222.075-.149.054-.222.083-.148.068-.223.1-.148.066-.222.1-.149.064-.223.1-.149.069-.222.106-.148.086-.222.126-.149.083-.223.126-.149.082-.222.126-.149.088-.222.135-.148.1-.223.154-.148.1-.222.154-.15.1-.223.154-.148.112-.222.169-.148.124-.222.185-.149.122-.223.185-.15.12-.222.185c-.014.013-.029.023-.043.036-.064.058-.117.121-.179.179-.077.073-.148.149-.223.223s-.151.147-.222.222-.15.143-.218.218c-.148.163-.278.335-.414.5L41,18.1c-.073.091-.153.179-.223.272-.017.023-.038.044-.054.066-.061.083-.11.17-.168.254-.041.058-.078.117-.117.176-.064.1-.134.195-.2.294-.042.069-.092.134-.133.2l0,0c-.17.288-.32.585-.46.886-.014.03-.032.059-.045.089a10.385,10.385,0,0,0-.4,1.011l0,.011a11.475,11.475,0,0,0-.561,3.377c0,.1-.014.2-.014.3s.011.2.013.3H60.981c0-.112.011-.224.011-.336,0-.088-.007-.173-.008-.26m-5.514,0h-11.5a7.421,7.421,0,0,1,.147-1.257,6.339,6.339,0,0,1,.222-.8,5.8,5.8,0,0,1,.223-.552c.068-.147.142-.29.222-.429.07-.122.143-.243.222-.36s.144-.21.223-.312.147-.175.222-.26c.056-.064.107-.129.166-.191.018-.019.038-.035.057-.054.072-.074.147-.142.222-.212s.147-.135.222-.2.148-.116.223-.173.147-.111.222-.163.148-.093.222-.138.147-.093.223-.134.148-.072.222-.107.147-.075.223-.107.148-.055.222-.083.147-.055.222-.079.148-.046.223-.067.148-.037.222-.054.147-.039.222-.054.149-.02.223-.032.147-.023.222-.031.147-.018.223-.024.148-.007.222-.01.147-.009.222-.01c.03,0,.059,0,.089,0s.088.005.134.006c.075,0,.148.006.222.01s.15,0,.222.01.148.017.223.026.149.019.222.03.15.019.222.033.148.035.223.052.15.033.222.052.149.044.223.067.149.051.222.077.15.051.222.082.148.07.223.106.15.067.222.105.148.088.222.132.15.088.223.136.149.107.222.162.15.111.223.171.149.131.222.2.15.137.222.211c.017.017.035.032.052.049.061.064.114.132.171.2.076.087.153.173.222.264s.151.207.222.314.153.243.223.368q.121.215.222.443a5.871,5.871,0,0,1,.223.574,6.48,6.48,0,0,1,.222.864,7.739,7.739,0,0,1,.122,1.155Z" transform="translate(-15.605 -5.578)" fill="#f1a31b"/>
      <path id="Path_44" data-name="Path 44" d="M60.568,34.751H38.741c.02.2.052.4.082.6H60.876c.033-.2.062-.4.084-.6h-.392Z" transform="translate(-15.65 -14.038)" fill="#5a627c"/>
      <path id="Path_45" data-name="Path 45" d="M60.535,37.356H39.2c.032.134.058.269.1.4.018.066.038.131.058.2H60.688c.023-.071.043-.142.064-.214.038-.127.077-.254.11-.382h-.327Z" transform="translate(-15.834 -15.09)" fill="#027a8d"/>
      <path id="Path_46" data-name="Path 46" d="M60.437,39.96H40.027c.01.025.024.049.035.075.067.156.143.308.217.461.01.02.019.041.029.061H60.4c.013-.026.024-.052.036-.078.077-.159.148-.319.217-.48l.017-.038h-.234Z" transform="translate(-16.169 -16.142)" fill="#02697e"/>
      <path id="Path_47" data-name="Path 47" d="M60.121,42.564H41.391c.03.049.057.1.089.147.07.108.142.214.216.319.031.044.066.086.1.129H60.029c.03-.044.062-.086.092-.129.074-.109.146-.221.217-.333l.082-.134h-.3Z" transform="translate(-16.72 -17.194)" fill="#01586f"/>
      <path id="Path_48" data-name="Path 48" d="M59.835,45.168H43.366c.07.078.139.157.212.234s.135.156.209.23l.008.007c.044.044.091.081.135.125H59.512c.035-.034.072-.066.107-.1.075-.075.145-.154.217-.231s.146-.154.217-.233l.029-.032h-.246Z" transform="translate(-17.518 -18.246)" fill="#014760"/>
      <path id="Path_49" data-name="Path 49" d="M59.239,47.772H46.183l.051.038c.073.055.144.113.217.165s.143.109.216.159.145.087.217.133c.055.035.11.067.166.1H58.619c.063-.038.125-.077.187-.115s.146-.088.216-.134.145-.1.217-.148.145-.1.217-.154l.063-.045h-.28Z" transform="translate(-18.656 -19.298)" fill="#013551"/>
      <path id="Path_50" data-name="Path 50" d="M58.144,50.376h-7.16l.007,0c.072.026.144.054.217.077s.143.055.216.077.145.035.217.055.145.035.217.053l.216.053c.073.017.144.038.217.053s.143.037.217.051.145.018.216.03.145.02.217.031l.217.03c.072.01.144.023.216.03s.144.022.217.029.145,0,.217.01.145.006.216.01l.083,0c.195.009.386.026.585.026.272,0,.541-.01.807-.026l.042,0c.073-.005.144-.014.217-.02l.216-.02c.072-.008.145-.011.217-.02s.144-.022.217-.032.144-.022.216-.034.145-.021.217-.034.145-.026.217-.041.144-.032.216-.048.145-.032.217-.049.145-.032.217-.051.144-.044.216-.064.145-.042.217-.064.145-.041.217-.064c.048-.016.095-.035.142-.051h-.359Z" transform="translate(-20.595 -20.349)" fill="#5a627c"/>
    </g>
  </g>
</svg>
