<svg id="Layer_1" enable-background="new 0 0 512 512" height="512" viewBox="0 0 512 512" width="512" xmlns="http://www.w3.org/2000/svg"><path fill="#f1a31b" d="m406.037 419.222c3.124 3.124 3.124 8.189 0 11.313-32.734 32.734-74.094 54.042-119.608 61.622-12.228 2.036-24.499 3.048-36.702 3.048-25.65 0-51.019-4.481-75.182-13.285l6.677 9.469c2.546 3.611 1.683 8.602-1.928 11.148-1.401.988-3.01 1.462-4.604 1.462-2.513 0-4.986-1.181-6.545-3.391l-23.261-32.989c-1.535-2.177-1.886-4.974-.936-7.462.949-2.488 3.075-4.341 5.67-4.941l35.581-8.235c4.308-.997 8.603 1.687 9.598 5.99.996 4.304-1.686 8.602-5.99 9.598l-12.548 2.904c74.911 28.88 161.081 11.132 218.463-46.252 3.125-3.123 8.19-3.123 11.315.001zm-103.071-342.438c78.387 21.003 136.842 86.752 149.287 166.068l-8.789-9.414c-3.014-3.229-8.077-3.404-11.307-.389-3.229 3.015-3.404 8.077-.389 11.307l24.922 26.696c1.525 1.634 3.649 2.541 5.848 2.541.42 0 .844-.033 1.267-.101 2.63-.421 4.877-2.124 5.995-4.542l16.939-36.64c1.854-4.01.105-8.764-3.904-10.618-4.01-1.856-8.766-.107-10.619 3.904l-4.856 10.504c-6.581-37.376-22.652-72.314-47.083-101.998-29.321-35.627-68.455-60.792-113.171-72.773-4.266-1.142-8.653 1.39-9.798 5.657-1.142 4.267 1.391 8.654 5.658 9.798zm-258.415 260.755c.686 0 1.382-.089 2.075-.274 4.268-1.144 6.801-5.53 5.657-9.798-21.004-78.387 6.709-161.885 69.177-212.322l-3.759 12.32c-1.29 4.226 1.091 8.697 5.316 9.987.778.237 1.564.35 2.338.35 3.427 0 6.597-2.219 7.648-5.667l10.659-34.932c.777-2.547.236-5.315-1.444-7.381s-4.271-3.163-6.931-2.921l-40.2 3.65c-4.4.399-7.643 4.291-7.243 8.69.398 4.4 4.287 7.638 8.69 7.244l11.523-1.046c-29.079 24.387-51.3 55.774-64.792 91.774-16.193 43.207-18.42 89.68-6.438 134.395.96 3.574 4.192 5.931 7.724 5.931zm126.399-279.965c0-27.336 22.239-49.574 49.574-49.574s49.574 22.239 49.574 49.574-22.239 49.574-49.574 49.574-49.574-22.239-49.574-49.574zm16 0c0 18.513 15.062 33.574 33.574 33.574s33.574-15.061 33.574-33.574-15.061-33.574-33.574-33.574-33.574 15.061-33.574 33.574zm2.2 216.916c0-33.548 27.293-60.841 60.841-60.841s60.842 27.293 60.842 60.841-27.294 60.841-60.842 60.841-60.841-27.293-60.841-60.841zm16 0c0 24.726 20.115 44.841 44.841 44.841s44.842-20.116 44.842-44.841-20.116-44.841-44.842-44.841-44.841 20.116-44.841 44.841zm-55.258-28.28c2.211-7.838 5.336-15.375 9.325-22.493l-6.406-14.422c-1.343-3.025-.686-6.564 1.654-8.904l21.425-21.425c2.341-2.34 5.878-2.999 8.904-1.654l14.417 6.403c7.118-3.991 14.658-7.117 22.501-9.328l5.663-14.712c1.188-3.089 4.156-5.126 7.466-5.126h30.299c3.31 0 6.277 2.038 7.466 5.126l5.665 14.718c7.838 2.21 15.374 5.335 22.492 9.325l14.424-6.406c3.025-1.342 6.563-.686 8.904 1.655l21.425 21.424c2.34 2.34 2.997 5.88 1.654 8.904l-6.404 14.417c3.991 7.118 7.116 14.655 9.328 22.5l14.713 5.663c3.088 1.188 5.126 4.156 5.126 7.466v30.299c0 3.31-2.038 6.277-5.126 7.466l-14.716 5.664c-2.211 7.841-5.336 15.378-9.326 22.495l6.405 14.42c1.343 3.025.686 6.564-1.654 8.904l-21.425 21.425c-2.341 2.34-5.879 2.998-8.904 1.655l-14.424-6.406c-7.116 3.99-14.653 7.115-22.492 9.326l-5.665 14.717c-1.188 3.088-4.156 5.126-7.466 5.126h-30.299c-3.31 0-6.277-2.038-7.466-5.126l-5.664-14.717c-7.839-2.211-15.376-5.336-22.492-9.326l-14.424 6.406c-3.025 1.343-6.564.685-8.903-1.655l-21.426-21.425c-2.341-2.34-2.998-5.879-1.655-8.904l6.403-14.417c-3.991-7.119-7.116-14.657-9.327-22.5l-14.713-5.663c-3.088-1.188-5.126-4.156-5.126-7.466v-30.299c0-3.31 2.038-6.277 5.126-7.466zm-3.844 18.624v19.313l13.42 5.166c2.462.947 4.298 3.048 4.908 5.614 2.156 9.062 5.732 17.688 10.629 25.639 1.384 2.247 1.57 5.031.5 7.442l-5.842 13.153 13.657 13.657 13.159-5.844c2.409-1.07 5.195-.884 7.441.5 7.951 4.896 16.575 8.471 25.633 10.627 2.566.611 4.666 2.447 5.613 4.909l5.167 13.424h19.312l5.168-13.424c.947-2.461 3.048-4.298 5.613-4.909 9.058-2.156 17.682-5.731 25.633-10.627 2.246-1.384 5.032-1.569 7.441-.5l13.159 5.844 13.656-13.657-5.844-13.156c-1.07-2.412-.884-5.196.5-7.443 4.896-7.949 8.471-16.574 10.628-25.634.61-2.566 2.447-4.666 4.908-5.613l13.423-5.167v-19.314l-13.42-5.166c-2.462-.947-4.298-3.048-4.908-5.614-2.157-9.064-5.733-17.69-10.63-25.638-1.384-2.247-1.571-5.032-.5-7.443l5.843-13.153-13.656-13.656-13.159 5.844c-2.409 1.069-5.193.884-7.441-.499-7.952-4.896-16.576-8.472-25.632-10.627-2.566-.611-4.667-2.447-5.614-4.909l-5.168-13.425h-19.312l-5.166 13.42c-.947 2.462-3.048 4.299-5.614 4.909-9.062 2.156-17.688 5.732-25.639 10.628-2.248 1.385-5.033 1.57-7.442.5l-13.153-5.842-13.656 13.656 5.845 13.158c1.07 2.411.884 5.195-.499 7.442-4.896 7.951-8.472 16.575-10.628 25.632-.61 2.566-2.447 4.666-4.908 5.613zm104.418 26.731c-3.584.086-8.075-1.249-9.082-5.284-1.069-4.287-5.413-6.895-9.698-5.827-4.287 1.069-6.896 5.411-5.827 9.698 1.99 7.98 8.076 13.899 16.132 16.274v.354c0 4.418 3.582 8 8 8s8-3.582 8-8v-.209c4.915-1.28 9.184-3.738 12.057-7.06 3.366-3.893 4.807-8.748 4.164-14.039-1.257-10.362-8.954-16.774-22.878-19.059-5.224-.858-7.922-2.309-8.02-4.312-.151-3.119 3.466-4.185 4.578-4.437 2.677-.607 7.738-.356 9.745 4.423 1.711 4.074 6.402 5.988 10.474 4.279 4.073-1.71 5.989-6.4 4.278-10.473-2.746-6.541-8.023-11.206-14.398-13.287v-.404c0-4.418-3.582-8-8-8s-8 3.582-8 8v.511c-9.302 3.047-15.108 10.895-14.657 20.164.289 5.952 3.454 16.377 21.408 19.325 9.138 1.5 9.452 4.091 9.587 5.198.118.973-.114 1.333-.384 1.645-1.028 1.188-3.926 2.435-7.479 2.52zm-108.49 139.454c1.537 2.466 1.616 5.573.206 8.114-1.411 2.542-4.089 4.118-6.995 4.118h-116.637c-2.906 0-5.584-1.576-6.995-4.118-1.41-2.541-1.331-5.647.206-8.114l58.318-93.564c1.461-2.344 4.027-3.769 6.789-3.769s5.328 1.425 6.789 3.769zm-21.202-3.769-43.905-70.44-43.905 70.44zm380.676-110.688v81.738c0 4.418-3.582 8-8 8h-81.738c-4.418 0-8-3.582-8-8v-81.738c0-4.418 3.582-8 8-8h81.738c4.418 0 8 3.581 8 8zm-16 8h-65.738v65.738h65.738z"/></svg>