<svg xmlns="http://www.w3.org/2000/svg" width="17.438" height="18" viewBox="0 0 17.438 18">
  <path id="file-pdf-solid" d="M0,2.25A2.252,2.252,0,0,1,2.25,0H7.875V4.5A1.124,1.124,0,0,0,9,5.625h4.5v5.063H6.188a2.252,2.252,0,0,0-2.25,2.25V18H2.25A2.252,2.252,0,0,1,0,15.75ZM13.5,4.5H9V0ZM6.188,12.375H7.313a1.969,1.969,0,1,1,0,3.938H6.75v1.125a.563.563,0,0,1-1.125,0v-4.5A.564.564,0,0,1,6.188,12.375Zm1.125,2.813a.844.844,0,1,0,0-1.688H6.75v1.688Zm3.375-2.813h1.125A1.688,1.688,0,0,1,13.5,14.063v2.25A1.688,1.688,0,0,1,11.813,18H10.688a.564.564,0,0,1-.562-.562v-4.5A.564.564,0,0,1,10.688,12.375Zm1.125,4.5a.564.564,0,0,0,.563-.562v-2.25a.564.564,0,0,0-.563-.563H11.25v3.375Zm2.813-3.938a.564.564,0,0,1,.563-.562h1.688a.563.563,0,1,1,0,1.125H15.75v1.125h1.125a.563.563,0,1,1,0,1.125H15.75v1.688a.563.563,0,0,1-1.125,0v-4.5Z" fill="#f40f02"/>
</svg>
