<svg xmlns="http://www.w3.org/2000/svg" width="10.665" height="10.711" viewBox="0 0 10.665 10.711">
  <g id="Group_384" data-name="Group 384" transform="translate(0.249 0.25)">
    <g id="Group_372" data-name="Group 372" transform="translate(0 0)">
      <path id="Path_376" data-name="Path 376" d="M1.02,1.033H9.141V9.149c-.063,0-.122.008-.181.009L7.131,9.17a.5.5,0,0,0-.423.205.48.48,0,0,0-.049.533.509.509,0,0,0,.494.286c.807-.007,1.614-.016,2.421-.022a.521.521,0,0,0,.59-.593q0-4.489,0-8.977a.527.527,0,0,0-.6-.6H.615a.53.53,0,0,0-.6.59c0,.524-.006,1.048-.008,1.571,0,.318-.013.636,0,.953a.488.488,0,0,0,.516.465A.5.5,0,0,0,1.013,3.1c.006-.124.007-.249.007-.373,0-.562,0-1.124,0-1.7M4.595,6.324v.165c0,.7,0,1.408,0,2.112a.71.71,0,0,0,.1.348.482.482,0,0,0,.557.187.518.518,0,0,0,.359-.5c0-.554,0-1.108,0-1.661,0-.622,0-1.245,0-1.867a.5.5,0,0,0-.5-.527q-1.8,0-3.593,0a.5.5,0,0,0-.466.66.521.521,0,0,0,.547.361H3.694c.044,0,.087,0,.153.007-.049.051-.077.083-.107.112L2.057,7.412Q1.125,8.347.193,9.281a.511.511,0,1,0,.716.726q.966-.964,1.93-1.931C3.415,7.5,3.993,6.924,4.595,6.324" transform="translate(0 -0.001)" fill="#e6ac56" stroke="#e6ac56" stroke-width="0.5"/>
      <path id="Path_377" data-name="Path 377" d="M1.02,1.033c0,.573,0,1.134,0,1.7,0,.124,0,.249-.007.373a.5.5,0,0,1-.493.478A.488.488,0,0,1,0,3.115c-.01-.317,0-.635,0-.953,0-.524,0-1.048.008-1.571A.53.53,0,0,1,.615,0H9.567a.527.527,0,0,1,.6.6q0,4.489,0,8.977a.521.521,0,0,1-.59.593c-.807.006-1.614.015-2.421.022a.509.509,0,0,1-.494-.286.48.48,0,0,1,.049-.533.5.5,0,0,1,.423-.205L8.96,9.157c.059,0,.118-.005.181-.009V1.033Z" transform="translate(0 -0.001)" fill="#e6ac56" stroke="#e6ac56" stroke-width="0.5"/>
      <path id="Path_378" data-name="Path 378" d="M5.406,179.3c-.6.6-1.179,1.175-1.756,1.752q-.966.965-1.93,1.931A.511.511,0,1,1,1,182.261q.931-.936,1.864-1.869L4.551,178.7c.03-.03.058-.061.107-.112-.065,0-.109-.007-.153-.007H2.419a.521.521,0,0,1-.547-.361.5.5,0,0,1,.466-.66q1.8-.006,3.593,0a.5.5,0,0,1,.5.527c0,.622,0,1.245,0,1.867,0,.554,0,1.108,0,1.661a.518.518,0,0,1-.359.5.482.482,0,0,1-.557-.187.71.71,0,0,1-.1-.348c-.009-.7,0-1.408,0-2.112Z" transform="translate(-0.811 -172.98)" fill="#e6ac56" stroke="#e6ac56" stroke-width="0.5"/>
    </g>
  </g>
</svg>
