<svg id="Layer_1" height="512" viewBox="0 0 64 64" width="512" xmlns="http://www.w3.org/2000/svg" data-name="Layer 1"><path fill="#b2c2f2" d="m37 47c0-.55-.45-1-1-1h-16c-.55 0-1 .45-1 1s.45 1 1 1h16c.55 0 1-.45 1-1z"/><path  fill="#b2c2f2" d="m42 50h-18c-.55 0-1 .45-1 1s.45 1 1 1h18c.55 0 1-.45 1-1s-.45-1-1-1z"/><path  fill="#b2c2f2" d="m24 12h16c.55 0 1-.45 1-1s-.45-1-1-1h-16c-.55 0-1 .45-1 1s.45 1 1 1z"/><path fill="#b2c2f2" d="m34 16.74c-6.62 0-12 5.38-12 12s5.38 12 12 12 12-5.38 12-12-5.38-12-12-12zm0 22c-5.51 0-10-4.49-10-10s4.49-10 10-10 10 4.49 10 10-4.49 10-10 10z"/><path  fill="#b2c2f2" d="m30 25.74h8c.55 0 1-.45 1-1s-.45-1-1-1h-8c-.55 0-1 .45-1 1s.45 1 1 1z"/><path fill="#b2c2f2" d="m39 31.74h-10c-.55 0-1 .45-1 1s.45 1 1 1h10c.55 0 1-.45 1-1s-.45-1-1-1z"/><path fill="#b2c2f2" d="m42 27.74h-16c-.55 0-1 .45-1 1s.45 1 1 1h16c.55 0 1-.45 1-1s-.45-1-1-1z"/><path  fill="#b2c2f2" d="m55 47.11v-36.11c0-.29-.12-.56-.34-.75l-9-8c-.18-.16-.42-.25-.66-.25h-29c-.55 0-1 .45-1 1v5h-5c-.55 0-1 .45-1 1v52c0 .55.45 1 1 1h39c.55 0 1-.45 1-1v-5h4c.55 0 1-.45 1-1v-.61c.41-.24.79-.54 1.1-.92.58-.72.9-1.64.9-2.58 0-1.03-.39-2.03-1.1-2.8l-.9-.97zm-9-41.88 5.37 4.77h-5.37zm-29-1.23h27v7c0 .55.45 1 1 1h8v32.96l-6.88-7.42c1.8-2.48 2.88-5.51 2.88-8.81 0-8.27-6.73-15-15-15s-15 6.73-15 15 6.73 15 15 15c2.15 0 4.19-.46 6.05-1.28l9.75 11.14c.13.15.29.28.44.41h-33.24zm17 37.74c-7.17 0-13-5.83-13-13s5.83-13 13-13 13 5.83 13 13-5.83 13-13 13zm14 18.26h-37v-50h4v45c0 .55.45 1 1 1h32zm6.54-7.79c-.6.75-1.63 1-2.5.62-.29-.13-.54-.31-.74-.55l-9.44-10.79c1.09-.67 2.09-1.48 2.97-2.4l9.61 10.35c.37.4.57.91.57 1.44 0 .49-.16.95-.46 1.32z"/></svg>