<?xml version="1.0" encoding="iso-8859-1"?>
<!-- Uploaded to: SVG Repo, www.svgrepo.com, Generator: SVG Repo Mixer Tools -->
<svg fill="#f1a31b" version="1.1" id="Layer_1" xmlns="http://www.w3.org/2000/svg" xmlns:xlink="http://www.w3.org/1999/xlink" 
	 viewBox="0 0 496 496" xml:space="preserve">
<g>
	<g>
		<g>
			<path d="M448,0h-64v80H0v416h448c26.472,0,48-21.528,48-48V48C496,21.528,474.472,0,448,0z M448,480H16V96h368v320h64
				c17.648,0,32,14.352,32,32S465.648,480,448,480z M480,412.248C471.504,404.64,460.28,400,448,400h-48V16h48
				c17.648,0,32,14.352,32,32V412.248z"/>
			<path d="M264,229.192V424c0,22.056,17.944,40,40,40c22.056,0,40-17.944,40-40V229.192l-40-50L264,229.192z M280,248h16v120h-16
				V248z M328,424c0,13.232-10.768,24-24,24s-24-10.768-24-24v-8h48V424z M328,400h-48v-16h48V400z M328,368h-16V248h16V368z
				 M282.24,232L304,204.808L325.76,232H282.24z"/>
			<rect x="272" y="168" width="24" height="16"/>
			<rect x="296" y="144" width="16" height="24"/>
			<rect x="312" y="168" width="24" height="16"/>
			<path d="M32,448h16c0-237.68,200.36-263.088,208.888-264.048l-1.776-15.896C252.88,168.296,32,195.76,32,448z"/>
			<path d="M192,272c-22.056,0-40,17.944-40,40c0,22.056,17.944,40,40,40c22.056,0,40-17.944,40-40C232,289.944,214.056,272,192,272
				z M192,336c-13.232,0-24-10.768-24-24s10.768-24,24-24s24,10.768,24,24S205.232,336,192,336z"/>
			<path d="M72,192c22.056,0,40-17.944,40-40c0-22.056-17.944-40-40-40c-22.056,0-40,17.944-40,40C32,174.056,49.944,192,72,192z
				 M72,128c13.232,0,24,10.768,24,24s-10.768,24-24,24s-24-10.768-24-24S58.768,128,72,128z"/>
		</g>
	</g>
</g>
</svg>