<?xml version="1.0" encoding="UTF-8" standalone="no"?>
<!-- Created with Inkscape (http://www.inkscape.org/) -->

<svg
   version="1.1"
   id="svg2436"
   xml:space="preserve"
   width="682.66669"
   height="682.66669"
   viewBox="0 0 682.66669 682.66669"
   xmlns="http://www.w3.org/2000/svg"
   xmlns:svg="http://www.w3.org/2000/svg"><defs
     id="defs2440"><clipPath
       clipPathUnits="userSpaceOnUse"
       id="clipPath2450"><path
         d="M 0,512 H 512 V 0 H 0 Z"
         id="path2448" /></clipPath></defs><g
     id="g2442"
     transform="matrix(1.3333333,0,0,-1.3333333,0,682.66667)"><g
       id="g2444"><g
         id="g2446"
         clip-path="url(#clipPath2450)"><g
           id="g2452"
           transform="translate(35.1146,156.7779)"><path
             d="m 0,0 v 346.646 c 0,0.596 0.483,1.079 1.079,1.079 h 356.785 c 0.596,0 1.079,-0.483 1.079,-1.079 v -494.844 c 0,-0.596 -0.483,-1.08 -1.079,-1.08 H 1.079 c -0.596,0 -1.079,0.484 -1.079,1.08 L 0,-35"
             style="fill:none;stroke:#f1a31b;stroke-width:15;stroke-linecap:round;stroke-linejoin:round;stroke-miterlimit:10;stroke-dasharray:none;stroke-opacity:1"
             id="path2454" /></g><g
           id="g2456"
           transform="translate(338.8319,62.7247)"><path
             d="m 0,0 c -35.36,-35.36 -83.318,-55.226 -133.324,-55.227 l -31.342,-0.001 c 60.443,0.002 109.441,49.001 109.441,109.444 v 0.003 c 0,0.557 0.452,1.008 1.008,1.008 60.445,0 109.444,49 109.444,109.444 V 133.33 C 55.227,83.322 35.361,35.361 0,0 Z"
             style="fill:none;stroke:#f1a31b;stroke-width:15;stroke-linecap:round;stroke-linejoin:round;stroke-miterlimit:10;stroke-dasharray:none;stroke-opacity:1"
             id="path2458" /></g><g
           id="g2460"
           transform="translate(117.9535,283.6788)"><path
             d="M 0,0 H 69.021"
             style="fill:none;stroke:#f1a31b;stroke-width:15;stroke-linecap:round;stroke-linejoin:round;stroke-miterlimit:10;stroke-dasharray:none;stroke-opacity:1"
             id="path2462" /></g><g
           id="g2464"
           transform="translate(90.3368,256.068)"><path
             d="M 0,0 H 248.499"
             style="fill:none;stroke:#f1a31b;stroke-width:15;stroke-linecap:round;stroke-linejoin:round;stroke-miterlimit:10;stroke-dasharray:none;stroke-opacity:1"
             id="path2466" /></g><g
           id="g2468"
           transform="translate(117.9535,214.586)"><path
             d="M 0,0 H 69.021"
             style="fill:none;stroke:#f1a31b;stroke-width:15;stroke-linecap:round;stroke-linejoin:round;stroke-miterlimit:10;stroke-dasharray:none;stroke-opacity:1"
             id="path2470" /></g><g
           id="g2472"
           transform="translate(90.3368,186.9752)"><path
             d="M 0,0 H 248.499"
             style="fill:none;stroke:#f1a31b;stroke-width:15;stroke-linecap:round;stroke-linejoin:round;stroke-miterlimit:10;stroke-dasharray:none;stroke-opacity:1"
             id="path2474" /></g><g
           id="g2476"
           transform="translate(117.9535,145.4898)"><path
             d="M 0,0 H 69.021"
             style="fill:none;stroke:#f1a31b;stroke-width:15;stroke-linecap:round;stroke-linejoin:round;stroke-miterlimit:10;stroke-dasharray:none;stroke-opacity:1"
             id="path2478" /></g><g
           id="g2480"
           transform="translate(90.3368,117.879)"><path
             d="M 0,0 H 193.9"
             style="fill:none;stroke:#f1a31b;stroke-width:15;stroke-linecap:round;stroke-linejoin:round;stroke-miterlimit:10;stroke-dasharray:none;stroke-opacity:1"
             id="path2482" /></g><g
           id="g2484"
           transform="translate(166.7548,463.0748)"><path
             d="m 0,0 h 184.005 c 1.04,0 1.882,-0.842 1.882,-1.882 v -37.637 c 0,-1.039 -0.842,-1.882 -1.882,-1.882 H -88.334 c -1.04,0 -1.882,0.843 -1.882,1.882 v 37.637 c 0,1.04 0.842,1.882 1.882,1.882 L -35,0"
             style="fill:none;stroke:#f1a31b;stroke-width:15;stroke-linecap:round;stroke-linejoin:round;stroke-miterlimit:10;stroke-dasharray:none;stroke-opacity:1"
             id="path2486" /></g><g
           id="g2488"
           transform="translate(90.3432,283.5636)"><path
             d="M 0,0 V 0"
             style="fill:none;stroke:#f1a31b;stroke-width:15;stroke-linecap:round;stroke-linejoin:round;stroke-miterlimit:10;stroke-dasharray:none;stroke-opacity:1"
             id="path2490" /></g><g
           id="g2492"
           transform="translate(90.3432,214.586)"><path
             d="M 0,0 V 0"
             style="fill:none;stroke:#f1a31b;stroke-width:15;stroke-linecap:round;stroke-linejoin:round;stroke-miterlimit:10;stroke-dasharray:none;stroke-opacity:1"
             id="path2494" /></g><g
           id="g2496"
           transform="translate(90.3432,145.6056)"><path
             d="M 0,0 V 0"
             style="fill:none;stroke:#f1a31b;stroke-width:15;stroke-linecap:round;stroke-linejoin:round;stroke-miterlimit:10;stroke-dasharray:none;stroke-opacity:1"
             id="path2498" /></g><g
           id="g2500"
           transform="translate(117.9535,380.2452)"><path
             d="M 0,0 H 234.685"
             style="fill:none;stroke:#f1a31b;stroke-width:15;stroke-linecap:round;stroke-linejoin:round;stroke-miterlimit:10;stroke-dasharray:none;stroke-opacity:1"
             id="path2502" /></g><g
           id="g2504"
           transform="translate(76.5385,352.6349)"><path
             d="M 0,0 H 276.1"
             style="fill:none;stroke:#f1a31b;stroke-width:15;stroke-linecap:round;stroke-linejoin:round;stroke-miterlimit:10;stroke-dasharray:none;stroke-opacity:1"
             id="path2506" /></g><g
           id="g2508"
           transform="translate(76.5385,325.025)"><path
             d="M 0,0 H 179.459"
             style="fill:none;stroke:#f1a31b;stroke-width:15;stroke-linecap:round;stroke-linejoin:round;stroke-miterlimit:10;stroke-dasharray:none;stroke-opacity:1"
             id="path2510" /></g><g
           id="g2512"
           transform="translate(471.2416,297.419)"><path
             d="m 0,0 h -43.934 c -3.117,0 -5.644,2.527 -5.644,5.644 V 124.25 c 0,15.249 12.362,27.611 27.611,27.611 15.249,0 27.611,-12.362 27.611,-27.611 V 5.644 C 5.644,2.527 3.117,0 0,0 Z"
             style="fill:none;stroke:#f1a31b;stroke-width:15;stroke-linecap:round;stroke-linejoin:round;stroke-miterlimit:10;stroke-dasharray:none;stroke-opacity:1"
             id="path2514" /></g><g
           id="g2516"
           transform="translate(449.2743,407.8634)"><path
             d="M 0,0 V -82.833"
             style="fill:none;stroke:#f1a31b;stroke-width:15;stroke-linecap:round;stroke-linejoin:round;stroke-miterlimit:10;stroke-dasharray:none;stroke-opacity:1"
             id="path2518" /></g><g
           id="g2520"
           transform="translate(447.4315,65.1817)"><path
             d="M 0,0 C 0.921,-1.229 2.765,-1.229 3.686,0 15.164,15.304 21.699,33.711 22.474,52.765 H -18.788 C -18.013,33.711 -11.478,15.304 0,0 Z"
             style="fill:none;stroke:#f1a31b;stroke-width:15;stroke-linecap:round;stroke-linejoin:round;stroke-miterlimit:10;stroke-dasharray:none;stroke-opacity:1"
             id="path2522" /></g><g
           id="g2524"
           transform="translate(428.5663,297.419)"><path
             d="M 0,0 V -27.611 H 41.417 V 0"
             style="fill:none;stroke:#f1a31b;stroke-width:15;stroke-linecap:round;stroke-linejoin:round;stroke-miterlimit:10;stroke-dasharray:none;stroke-opacity:1"
             id="path2526" /></g><g
           id="g2528"
           transform="translate(469.9828,247.3956)"><path
             d="M 0,0 V 22.412"
             style="fill:none;stroke:#f1a31b;stroke-width:15;stroke-linecap:round;stroke-linejoin:round;stroke-miterlimit:10;stroke-dasharray:none;stroke-opacity:1"
             id="path2530" /></g><g
           id="g2532"
           transform="translate(469.9828,121.7779)"><path
             d="M 0,0 V 90.618"
             style="fill:none;stroke:#f1a31b;stroke-width:15;stroke-linecap:round;stroke-linejoin:round;stroke-miterlimit:10;stroke-dasharray:none;stroke-opacity:1"
             id="path2534" /></g><g
           id="g2536"
           transform="translate(428.5663,269.8077)"><path
             d="M 0,0 V -148.03"
             style="fill:none;stroke:#f1a31b;stroke-width:15;stroke-linecap:round;stroke-linejoin:round;stroke-miterlimit:10;stroke-dasharray:none;stroke-opacity:1"
             id="path2538" /></g></g></g></g></svg>
