<svg id="Bahan_copy" viewBox="0 0 64 64" xmlns="http://www.w3.org/2000/svg" data-name="Bahan copy"><g fill="rgb(0,0,0)"><path fill="#b2c2f2" d="m55.74121 47.39209a5.22674 5.22674 0 0 1 -2.3643-1.70028 6.80582 6.80582 0 0 0 1.40727-4.142c-.02333-3.16651-2.77979-5.11657-5.80373-4.77967-4.774.09064-6.07707 5.64043-3.34913 8.94845-.47075.96835-1.78026 1.39033-2.63426 1.95821a4.19007 4.19007 0 0 0 -2.18749 3.59909v6.06445a2.80561 2.80561 0 0 0 2.92578 2.65966h11.51465a2.80561 2.80561 0 0 0 2.92578-2.65967v-6.20752a4.28311 4.28311 0 0 0 -2.43457-3.74072zm-6.76074-8.62209c4.31023-.49463 4.8588 4.0063 2.1328 6.42584a2.02265 2.02265 0 0 1 -2.84865.33777c-2.53747-1.71691-3.15083-6.50069.71585-6.76361zm7.19531 18.57031c-.04352.91073-1.75875.616-2.39162.65966v-3.54833a1.00018 1.00018 0 0 0 -2 .00006v3.5483h-4.583v-3.54834a1 1 0 0 0 -2 0v3.54834c-.62262-.04435-2.35282.25143-2.39158-.65969v-6.06443a2.21747 2.21747 0 0 1 1.19434-1.87109c1.05361-.63492 2.40351-1.20395 3.07468-2.27115a3.8662 3.8662 0 0 0 4.86953-.02854 7.0808 7.0808 0 0 0 2.883 2.0677 2.26511 2.26511 0 0 1 1.34468 1.96z"/><path fill="#b2c2f2" d="m26.07422 47.39209a5.22976 5.22976 0 0 1 -2.36491-1.70016 6.802 6.802 0 0 0 1.40788-4.14213c-.02333-3.16651-2.77979-5.11657-5.80374-4.77967-4.77406.09082-6.077 5.63986-3.34912 8.94845-.47051.96746-1.78034 1.39053-2.63426 1.95821a4.18829 4.18829 0 0 0 -2.18749 3.59909v6.06445a2.80561 2.80561 0 0 0 2.92578 2.65967h11.51464a2.80561 2.80561 0 0 0 2.92578-2.65967v-6.20752a4.28243 4.28243 0 0 0 -2.43456-3.74072zm-6.76074-8.62209c4.3106-.49482 4.85961 4.008 2.13084 6.42682a2.02169 2.02169 0 0 1 -2.84766.3363c-2.53682-1.71756-3.14912-6.50047.71682-6.76312zm7.19531 18.57031c-.04352.91073-1.75876.616-2.39162.65966v-3.54833a1.00018 1.00018 0 0 0 -2 .00006v3.5483h-4.583v-3.54834a1 1 0 0 0 -2 0v3.54834c-.62262-.04435-2.35282.25143-2.39158-.65969v-6.06443a2.21687 2.21687 0 0 1 1.19433-1.87109c1.05343-.635 2.40372-1.20425 3.07481-2.27109a3.86544 3.86544 0 0 0 4.86892-.0286 7.08746 7.08746 0 0 0 2.88347 2.0677 2.26568 2.26568 0 0 1 1.34468 1.96z"/><path fill="#b2c2f2" d="m45.27344 34.583a1.87075 1.87075 0 0 0 1.86618-1.86281v-3.0537a.7207.7207 0 0 1 .71973-.71972h2.81738a3.58343 3.58343 0 0 0 3.5791-3.57959v-12.03759a3.583 3.583 0 0 0 -3.5791-3.5791h-11.89743v-2.16749a3.58718 3.58718 0 0 0 -3.58301-3.583h-25.78906a3.58718 3.58718 0 0 0 -3.583 3.583v12.04a3.58188 3.58188 0 0 0 3.583 3.57275h2.81445a.71914.71914 0 0 1 .71777.71875v3.05518a1.87269 1.87269 0 0 0 3.084 1.40813l5.27829-4.58733v1.57666a3.58343 3.58343 0 0 0 3.5791 3.57959h12.95021a.71775.71775 0 0 1 .47168.17627l5.75782 5.001a1.84058 1.84058 0 0 0 1.21289.459zm-30.334-7.91309v-2.75536a2.72112 2.72112 0 0 0 -2.71777-2.71875h-2.81444a1.5796 1.5796 0 0 1 -1.583-1.57275v-12.04005a1.58458 1.58458 0 0 1 1.583-1.583h25.78906a1.58458 1.58458 0 0 1 1.583 1.583v2.16749h-11.89843a3.583 3.583 0 0 0 -3.5791 3.5791v8.03821c-.30231.1131-6.36231 5.30212-6.36231 5.30212zm22.8916.27686h-12.95018a1.58083 1.58083 0 0 1 -1.5791-1.57959v-12.03759a1.58072 1.58072 0 0 1 1.5791-1.5791h25.7959a1.58072 1.58072 0 0 1 1.5791 1.5791v12.0376a1.58083 1.58083 0 0 1 -1.5791 1.57959h-2.81738a2.72269 2.72269 0 0 0 -2.71973 2.71972v2.7461l-5.52442-4.79932a2.72281 2.72281 0 0 0 -1.78418-.6665z"/><path fill="#b2c2f2" d="m30.41211 17.9751h14.7334a1.00019 1.00019 0 0 0 -.00007-2h-14.73333a1.00019 1.00019 0 0 0 0 2z"/><path fill="#b2c2f2" d="m46.14551 21.72217a.99974.99974 0 0 0 -1-1h-14.7334a1 1 0 0 0 0 2h14.7334a.99974.99974 0 0 0 1-1z"/></g></svg>